<?xml version="1.0" standalone="no"?>
<!DOCTYPE svg PUBLIC "-//W3C//DTD SVG 20010904//EN"
 "http://www.w3.org/TR/2001/REC-SVG-20010904/DTD/svg10.dtd">
<svg version="1.0" xmlns="http://www.w3.org/2000/svg"
 width="150.000000pt" height="150.000000pt" viewBox="0 0 150.000000 150.000000"
 preserveAspectRatio="xMidYMid meet">

<g transform="translate(0.000000,150.000000) scale(0.100000,-0.100000)"
fill="#000000" stroke="none">
<path d="M1 1445 c1 -32 6 -52 11 -49 6 4 5 -3 -1 -14 -17 -33 -14 -80 7 -85
16 -4 16 -5 0 -6 -21 -1 -26 -55 -6 -67 6 -4 8 -3 4 4 -3 6 -3 13 2 16 4 2 9
-4 9 -15 1 -11 -5 -19 -15 -20 -14 0 -13 -2 3 -9 l20 -9 -20 -1 -20 -1 20 -9
c17 -7 17 -9 3 -9 -10 -1 -18 -5 -18 -11 0 -5 8 -7 18 -4 15 5 15 4 2 -8 -16
-14 -25 -103 -14 -147 4 -20 7 -22 15 -10 7 12 9 11 9 -3 0 -9 -8 -19 -18 -21
-14 -4 -14 -5 -1 -6 13 -1 16 -12 14 -56 -1 -30 2 -52 7 -49 4 3 8 1 8 -5 0
-5 -4 -12 -9 -15 -4 -3 -6 -17 -3 -31 3 -17 0 -25 -10 -25 -10 0 -15 -13 -15
-45 -1 -25 3 -45 8 -45 5 0 9 8 10 18 0 12 2 13 6 3 3 -8 -1 -19 -9 -25 -11
-8 -15 -32 -14 -99 0 -49 2 -84 4 -78 2 6 8 9 13 5 5 -3 9 3 9 13 0 14 2 15 9
4 10 -16 -17 -53 -32 -44 -6 3 -7 1 -3 -6 4 -6 12 -9 17 -6 5 4 9 -3 9 -14 0
-12 -5 -21 -11 -21 -5 0 -7 4 -4 10 3 6 1 10 -5 10 -16 0 -8 -62 10 -78 8 -8
9 -11 3 -7 -7 3 -13 1 -13 -4 0 -6 4 -11 9 -11 5 0 8 -11 7 -24 0 -13 -4 -22
-7 -20 -11 6 -19 -25 -18 -64 1 -20 3 -29 6 -20 9 37 21 16 19 -32 -2 -27 0
-47 5 -45 4 3 10 -1 12 -7 3 -7 6 -4 6 7 1 17 3 18 12 5 8 -11 12 -12 16 -3 3
10 8 9 20 -2 13 -13 12 -17 -3 -32 -16 -16 -16 -16 -10 4 6 18 3 20 -13 16
-13 -3 -18 -11 -14 -21 4 -12 1 -11 -10 3 -9 11 -17 18 -17 15 -7 -31 -7 -39
0 -35 5 3 7 -7 5 -22 -2 -16 -4 -34 -4 -42 -1 -7 -7 -11 -15 -8 -15 6 -16 -17
-1 -30 4 -4 5 -2 1 5 -4 6 -2 12 3 12 6 0 11 -4 11 -9 0 -5 11 -8 24 -8 17 0
26 6 28 20 2 11 11 21 21 23 9 1 15 -2 11 -7 -3 -5 -10 -7 -15 -4 -5 4 -9 -3
-9 -14 0 -18 6 -21 38 -21 30 0 42 5 51 22 l11 23 -6 -22 c-5 -21 -2 -23 40
-23 29 0 46 4 46 12 0 9 3 9 11 1 14 -14 39 6 39 31 0 9 4 16 10 16 10 0 3
-27 -13 -48 -8 -10 8 -12 72 -11 44 1 81 4 81 6 0 3 -8 12 -17 20 -10 8 -12
12 -5 8 13 -7 72 15 72 27 0 4 -7 5 -15 1 -10 -3 -15 -1 -13 7 2 7 -4 15 -12
17 -13 4 -13 3 0 -6 11 -8 12 -11 2 -11 -7 0 -11 -4 -8 -8 3 -5 -1 -9 -9 -9
-8 0 -11 5 -8 10 4 6 0 8 -9 4 -24 -9 -43 40 -23 59 19 20 19 35 0 28 -8 -4
-12 -11 -8 -17 4 -6 1 -7 -6 -3 -7 5 -10 15 -6 24 3 8 -7 2 -23 -14 -15 -16
-26 -35 -24 -41 2 -7 -1 -13 -7 -13 -16 0 -13 30 4 36 8 3 21 19 28 34 l14 28
-41 -2 c-38 -1 -41 1 -38 24 2 14 -1 21 -5 15 -4 -5 -26 -11 -48 -12 -23 -1
-34 1 -26 6 9 6 10 11 3 15 -6 4 -14 0 -19 -8 -5 -10 -13 -12 -23 -6 -11 7
-11 12 -2 23 7 7 11 16 9 18 -1 2 4 -2 11 -10 6 -8 12 -11 12 -7 0 5 6 4 13
-3 10 -8 17 -7 27 2 10 9 11 9 6 -1 -5 -8 0 -11 16 -8 13 3 23 5 23 6 0 1 18
4 39 5 22 2 34 0 28 -4 -18 -11 22 -45 44 -37 12 4 15 2 11 -9 -4 -8 -2 -17 2
-20 5 -2 11 7 14 21 3 19 0 24 -12 23 -30 -3 -42 1 -36 11 8 13 -17 50 -35 50
-13 0 -13 -1 0 -10 12 -7 10 -9 -7 -8 -12 1 -19 7 -16 15 3 7 -7 18 -21 24
-25 12 -25 12 -7 38 30 44 34 57 10 31 -13 -14 -21 -21 -16 -16 4 6 7 24 6 41
-1 29 -1 29 -9 5 l-8 -25 -2 25 c-1 14 -2 33 -1 42 2 12 -3 16 -13 12 -8 -3
-13 -14 -11 -24 3 -14 -1 -18 -17 -15 -35 7 -58 16 -57 23 1 4 -2 18 -6 30 -6
18 -10 20 -16 10 -5 -8 -7 -2 -5 17 1 17 8 29 14 28 7 -2 13 9 14 25 2 30 4
61 7 77 2 19 58 45 98 46 38 0 93 17 63 18 -10 1 -11 4 -4 9 6 4 10 17 9 29
-1 12 2 20 7 17 4 -3 8 -22 8 -42 0 -28 3 -33 12 -24 7 7 19 12 27 12 14 0 14
-1 1 -10 -12 -7 -8 -10 14 -10 24 0 27 3 18 12 -10 10 -8 15 9 24 14 7 18 14
10 18 -6 4 -11 2 -11 -3 0 -6 -7 -11 -16 -11 -13 0 -13 4 3 30 14 24 19 27 26
15 4 -8 14 -15 22 -15 13 0 38 33 41 55 1 6 3 12 4 15 1 3 3 20 5 39 2 18 8
37 15 41 7 4 9 13 6 19 -4 6 3 15 16 20 13 6 17 10 9 10 -8 1 -11 4 -8 8 4 3
1 13 -6 21 -10 13 -9 14 2 7 11 -6 13 -4 9 7 -4 8 0 15 7 15 10 0 11 -5 5 -17
-9 -17 -4 -30 11 -30 5 0 6 7 3 15 -5 11 -2 13 10 9 11 -4 16 -1 16 11 0 9 4
14 9 11 5 -3 14 0 20 8 9 10 8 15 -3 19 -8 3 -16 1 -19 -6 -2 -7 -6 -5 -9 4
-4 11 3 16 31 17 20 2 42 10 49 20 18 24 -4 29 -29 6 -18 -16 -19 -16 -13 -1
8 21 -12 23 -23 3 -4 -8 -12 -15 -18 -15 -5 -1 -18 -4 -29 -7 -15 -5 -16 -8
-5 -16 10 -7 8 -8 -8 -5 -13 3 -23 1 -23 -4 0 -5 -7 -9 -16 -9 -8 0 -12 -4 -9
-10 3 -5 -2 -10 -12 -10 -15 0 -15 -2 -3 -9 8 -6 18 -7 22 -5 4 3 8 0 8 -6 0
-6 -10 -8 -24 -4 -18 4 -27 1 -36 -15 -9 -17 -8 -22 5 -27 9 -4 14 -17 14 -33
-2 -22 -2 -23 -6 -4 -3 14 -9 20 -19 16 -12 -4 -14 1 -9 25 3 17 0 34 -6 37
-6 4 -9 1 -7 -6 1 -8 -1 -15 -6 -16 -5 -1 -13 -7 -17 -15 -6 -9 -9 -6 -9 11 0
25 -10 24 -13 -1 -3 -14 -9 -18 -33 -18 -8 0 -13 4 -10 9 3 5 -13 8 -37 7 -40
-1 -42 0 -39 27 3 21 -1 27 -15 26 -10 0 -13 -3 -5 -6 21 -8 13 -21 -10 -16
-13 3 -19 1 -13 -4 6 -4 16 -16 24 -26 11 -14 11 -17 1 -15 -7 2 -15 -3 -17
-10 -3 -8 1 -10 14 -5 17 6 17 6 1 -10 -23 -23 -26 -22 -25 16 1 18 -2 38 -6
44 -4 6 -3 14 3 18 6 4 8 11 4 16 -3 5 -2 9 3 8 22 -4 34 2 27 14 -6 9 -4 9 8
-1 14 -11 18 -10 30 6 12 18 15 18 28 4 13 -14 12 -15 -3 -9 -21 8 -31 -7 -13
-22 11 -9 15 -9 18 1 3 8 7 6 11 -5 5 -13 1 -17 -15 -17 -18 0 -19 -2 -7 -16
8 -10 15 -12 17 -5 2 7 14 8 30 4 26 -6 26 -5 10 13 -9 10 -18 28 -20 39 -1
11 -10 25 -18 32 -12 10 -11 11 9 6 17 -4 22 -3 17 5 -4 7 -2 12 4 12 6 0 3
11 -7 24 -10 13 -22 22 -27 19 -4 -3 -2 -9 5 -14 10 -6 11 -11 3 -19 -8 -8
-13 -6 -17 9 -3 12 -1 24 4 27 5 3 7 10 4 15 -4 5 -1 9 4 9 6 0 11 -5 11 -12
0 -9 3 -9 12 0 15 15 28 15 28 1 0 -5 -4 -8 -9 -4 -5 3 -12 1 -16 -5 -5 -9 7
-14 27 -11 4 0 5 -6 2 -14 -5 -11 -2 -13 10 -9 9 3 13 10 10 15 -3 5 1 6 9 3
8 -3 21 3 28 13 8 10 23 20 34 21 11 2 25 8 30 14 7 8 6 9 -2 4 -7 -4 -13 -2
-13 4 0 8 9 10 25 6 19 -5 23 -3 19 8 -4 11 0 14 15 11 23 -4 34 8 37 43 4 33
8 35 51 34 29 -1 35 1 23 9 -10 7 -10 9 -2 7 21 -6 9 -23 -15 -23 -13 1 -23
-3 -23 -8 0 -4 -5 -5 -12 -1 -6 4 -8 3 -5 -3 4 -6 30 -9 59 -7 29 2 60 3 68 4
11 0 12 2 3 8 -9 6 -6 11 8 21 13 8 18 8 14 1 -5 -8 10 -10 49 -9 31 1 56 6
56 11 0 4 11 7 24 6 14 -1 22 -6 20 -10 -7 -11 8 -10 26 2 10 6 11 10 3 10 -7
0 -13 5 -13 11 0 5 5 7 10 4 6 -3 10 -2 10 3 0 5 11 26 25 46 14 21 23 42 20
47 -4 5 -1 9 4 9 6 0 11 -5 11 -12 0 -6 9 -3 20 7 11 10 20 14 20 8 0 -5 17
-10 38 -11 26 -1 33 1 22 8 -8 5 -17 7 -21 4 -4 -2 -11 2 -17 9 -8 10 -5 13
14 15 14 1 23 -2 20 -7 -3 -5 6 -12 20 -15 15 -4 24 -12 21 -19 -5 -12 27 -60
34 -52 3 2 3 -15 1 -38 -2 -28 0 -38 6 -28 7 9 12 10 16 2 4 -6 12 -8 18 -5 7
5 5 11 -6 19 -14 11 -15 14 -1 25 13 11 14 10 9 -5 -6 -15 -4 -16 17 -6 20 10
21 10 8 -1 -26 -21 -22 -33 13 -39 27 -5 23 -7 -22 -8 -52 -1 -56 -3 -67 -31
-8 -21 -8 -30 1 -34 6 -2 2 -5 -9 -5 -11 -1 -31 -8 -43 -17 -12 -8 -27 -12
-32 -9 -6 4 -16 3 -23 -2 -16 -12 -43 -10 -40 3 1 6 -4 11 -12 11 -7 0 -11 -6
-8 -14 3 -7 9 -13 14 -13 5 0 8 -3 8 -7 -3 -21 2 -32 14 -27 8 3 14 -2 14 -11
0 -9 -6 -14 -13 -11 -7 3 -11 -2 -9 -12 1 -9 -2 -23 -8 -29 -5 -7 -6 -13 -2
-13 4 0 2 -6 -4 -14 -9 -11 -9 -16 0 -22 8 -4 9 -3 5 4 -5 8 4 12 28 12 22 0
36 -5 36 -12 0 -10 3 -9 9 1 5 7 14 10 20 7 25 -16 8 -25 -51 -28 -38 -2 -63
-8 -66 -16 -2 -7 2 -10 11 -6 11 4 14 0 11 -13 -5 -17 1 -19 60 -21 36 -1 65
2 64 6 -1 4 3 17 10 30 11 18 10 22 -2 22 -7 0 -16 7 -20 15 -6 16 18 16 43 1
9 -6 12 -5 8 0 -3 5 3 10 14 10 12 0 18 -6 16 -16 -1 -9 -11 -14 -22 -12 -16
3 -17 2 -6 -12 12 -14 9 -20 -11 -18 -13 2 -16 -27 -3 -38 7 -6 11 -20 8 -30
-4 -13 0 -20 9 -20 10 0 13 10 12 30 -1 16 2 28 6 25 4 -3 6 -15 3 -28 -4 -20
-3 -20 7 -4 6 9 15 15 21 12 14 -9 11 5 -5 21 -18 17 -46 19 -46 2 0 -6 -3 -8
-7 -5 -9 9 27 47 45 47 8 0 12 6 8 15 -4 11 1 14 19 13 14 -1 25 -6 25 -11 0
-5 -7 -7 -15 -3 -9 3 -15 0 -15 -9 0 -11 6 -12 23 -6 12 5 21 14 20 20 -2 6 2
11 7 11 6 0 10 6 10 14 0 8 5 18 10 21 6 4 9 1 8 -7 -2 -7 3 -12 9 -11 7 2 12
0 12 -5 -4 -21 2 -42 10 -38 5 3 12 -2 16 -12 6 -16 7 -16 20 1 7 10 15 14 18
10 6 -10 -7 -35 -17 -34 -33 5 -56 -1 -56 -14 0 -8 5 -15 10 -15 6 0 10 -4 10
-8 0 -5 -7 -9 -15 -9 -8 0 -15 6 -15 14 0 22 -2 28 -19 40 -10 7 -22 8 -33 2
-10 -6 -19 -5 -23 1 -4 6 -11 8 -16 4 -6 -4 -6 -11 2 -20 8 -10 16 -11 33 -3
18 10 18 9 -4 -12 -13 -13 -29 -23 -34 -21 -4 2 -6 -4 -2 -13 3 -9 2 -13 -4
-10 -6 3 -10 1 -10 -4 0 -6 -9 -11 -20 -11 -11 0 -20 -5 -20 -10 0 -6 11 -8
26 -4 19 5 25 4 20 -5 -9 -14 18 -15 44 -1 16 9 18 8 13 -7 -5 -12 -2 -15 8
-11 8 3 24 -1 34 -9 20 -14 20 -15 0 -11 -13 2 -19 -2 -17 -12 1 -10 -2 -9
-13 4 -15 20 -15 20 -15 0 -1 -16 -3 -16 -15 6 -8 14 -14 20 -15 13 0 -6 -15
-11 -34 -10 -30 1 -32 3 -18 14 9 7 12 13 6 13 -6 0 -17 -7 -24 -15 -17 -20
-31 -19 -24 3 5 13 4 14 -4 3 -6 -8 -17 -11 -27 -8 -9 4 -14 3 -11 -2 3 -5 -3
-11 -14 -14 -11 -3 -20 -2 -20 3 0 20 -36 20 -52 0 -13 -16 -18 -18 -18 -7 0
15 -28 32 -38 22 -3 -3 1 -5 9 -6 8 0 5 -4 -6 -8 -13 -5 -27 -3 -40 5 -24 17
-43 18 -27 2 7 -7 12 -17 12 -22 0 -6 -5 -4 -10 4 -7 11 -10 12 -10 2 0 -10
-4 -9 -16 3 -9 9 -23 14 -31 11 -8 -3 -11 -2 -8 3 3 5 1 12 -4 15 -5 3 -12 -2
-15 -11 -6 -15 -8 -15 -16 -3 -5 8 -12 11 -16 8 -10 -11 4 -40 16 -33 6 4 9 3
8 -2 -4 -13 26 -53 39 -53 7 0 13 -4 13 -10 0 -18 37 -48 50 -40 6 4 29 4 50
0 21 -4 43 -4 48 -1 6 3 33 4 62 2 49 -3 51 -4 30 -18 -12 -9 -25 -12 -29 -7
-12 17 -30 14 -41 -6 -9 -16 -8 -20 5 -20 9 0 13 5 10 10 -3 6 -2 10 4 10 5 0
11 -6 14 -12 3 -10 7 -10 20 0 9 8 20 11 26 8 5 -4 12 3 16 14 8 26 79 29 89
4 5 -14 4 -15 -8 -5 -13 11 -17 7 -25 -21 -5 -18 -10 -27 -10 -20 -1 7 -5 10
-11 7 -5 -3 -16 -3 -22 2 -22 13 -38 12 -38 -3 0 -9 5 -12 11 -8 6 3 15 1 19
-6 5 -7 22 -15 40 -17 27 -3 31 0 25 14 -5 15 -4 16 6 6 7 -7 18 -13 24 -13 5
1 -1 10 -14 20 -16 14 -19 20 -8 20 15 0 32 -27 28 -44 -1 -5 5 -6 13 -3 8 3
20 -1 27 -9 10 -12 9 -13 -6 -8 -15 6 -16 4 -6 -14 8 -16 8 -24 -3 -35 -13
-13 -11 -14 12 -14 15 0 21 2 15 4 -7 3 -13 9 -13 14 0 6 7 6 19 0 10 -6 20
-8 23 -6 3 3 5 -2 5 -10 0 -14 -7 -17 -50 -19 -10 -1 -22 -7 -26 -15 -7 -10
-9 -9 -14 3 -4 10 -19 16 -39 17 -27 0 -29 2 -13 8 l20 8 -20 5 c-15 4 -16 6
-3 7 9 0 20 -3 23 -9 11 -18 32 -11 43 15 11 24 11 25 -9 14 -12 -6 -31 -9
-43 -7 -11 2 -29 -4 -38 -14 -11 -10 -13 -18 -6 -18 6 0 8 -3 4 -7 -4 -4 -28
-8 -54 -8 -26 0 -52 -4 -58 -8 -7 -4 -17 0 -24 8 -8 9 -8 15 -2 15 6 0 13 -6
15 -12 4 -10 6 -10 6 0 1 8 18 12 49 12 34 0 43 3 32 10 -13 8 -12 10 4 10 12
0 16 5 12 15 -3 9 0 15 9 15 8 0 15 5 15 12 0 6 -3 9 -6 5 -3 -3 -17 -2 -30 3
-16 6 -24 6 -24 -1 0 -6 -4 -7 -10 -4 -5 3 -10 4 -10 0 0 -3 10 -10 23 -15 18
-7 19 -9 3 -9 -11 -1 -16 -6 -13 -15 4 -10 -4 -15 -28 -18 -38 -4 -57 0 -50
12 7 12 -20 19 -36 9 -12 -7 -12 -9 0 -9 8 0 11 -3 8 -6 -4 -4 -13 -1 -22 6
-26 21 -61 21 -62 -1 -1 -13 5 -19 18 -19 10 0 19 -4 19 -10 0 -5 -3 -9 -7 -9
-20 3 -30 -2 -30 -16 0 -8 5 -15 11 -15 6 0 5 -4 -3 -9 -16 -10 -6 -31 15 -31
8 0 12 -5 9 -10 -4 -6 -11 -7 -17 -4 -6 4 -8 2 -4 -4 3 -6 2 -13 -3 -17 -5 -3
-9 -14 -8 -25 1 -10 6 -16 12 -12 5 3 20 5 32 3 17 -2 21 2 17 12 -3 10 5 18
27 26 18 6 35 9 37 6 3 -3 0 -5 -7 -5 -7 0 -9 -5 -6 -10 4 -6 3 -10 -2 -9 -18
3 -33 -1 -33 -10 0 -14 39 0 53 19 7 9 20 16 29 14 10 -1 20 1 23 6 2 4 -5 7
-17 6 -12 0 -23 5 -26 13 -2 8 0 11 5 8 5 -3 10 4 10 16 2 15 0 18 -6 8 -7
-10 -10 -11 -16 -1 -6 10 -12 8 -22 -6 -10 -13 -14 -14 -11 -4 3 16 -37 62
-46 53 -3 -4 -6 -1 -6 5 0 7 12 12 28 11 15 0 21 -3 15 -6 -20 -7 -15 -23 6
-23 11 0 23 -5 26 -10 5 -8 11 -8 20 0 10 8 15 6 20 -9 3 -12 11 -21 16 -21 6
0 8 -4 5 -9 -8 -12 47 -9 56 4 5 6 8 6 8 -2 0 -6 9 -11 19 -10 11 0 17 5 15 9
-3 4 0 8 5 8 6 0 11 -5 11 -11 0 -6 7 -3 16 5 16 17 39 12 28 -5 -3 -5 8 -8
27 -7 21 2 34 9 37 20 5 21 32 24 32 4 0 -8 7 -17 16 -20 22 -8 26 -8 19 4 -3
5 0 10 7 11 7 1 2 5 -12 9 l-25 8 28 1 c24 1 27 -2 22 -19 -4 -11 -2 -20 4
-20 6 0 10 3 9 8 -1 4 3 16 9 28 17 29 12 64 -8 64 -9 0 -22 7 -29 15 -10 12
-9 16 4 21 24 9 19 22 -8 20 -17 -1 -23 -7 -22 -23 0 -11 4 -19 9 -16 4 2 7
-1 7 -6 0 -6 -7 -11 -15 -11 -8 0 -15 7 -15 16 0 8 -3 13 -8 10 -4 -2 -15 9
-24 25 -10 16 -13 29 -7 29 6 0 7 5 3 12 -4 7 -3 8 4 4 7 -4 12 -18 12 -32 0
-13 4 -24 8 -24 10 0 9 25 -2 58 -7 21 -9 22 -30 8 -15 -9 -28 -11 -37 -5 -8
5 -9 9 -4 9 6 0 4 4 -4 9 -10 7 -15 30 -15 75 -1 63 -2 65 -17 44 -9 -11 -20
-18 -25 -15 -5 2 -15 -1 -22 -9 -15 -17 -12 -17 23 -4 23 9 25 8 15 -10 -15
-29 -23 -30 -50 -8 -17 13 -21 21 -12 25 10 4 10 8 0 21 -11 13 -11 14 1 7 9
-5 19 -2 29 11 10 13 13 14 9 3 -3 -9 1 -16 9 -16 8 0 13 6 10 12 -2 7 4 12
17 11 12 -1 26 3 30 9 4 5 5 -2 1 -17 -4 -18 -2 -28 6 -28 6 0 9 4 6 8 -3 5
14 7 37 6 23 -2 36 0 30 3 -26 10 -12 18 32 18 25 0 45 -3 45 -7 0 -5 -5 -8
-11 -8 -8 0 -7 -6 2 -17 10 -11 10 -14 2 -9 -8 4 -13 2 -13 -4 0 -6 -4 -8 -10
-5 -5 3 -7 0 -4 -9 3 -9 12 -12 22 -8 14 5 14 2 -2 -13 -19 -19 -19 -20 5 -26
15 -4 28 -1 35 8 10 11 13 11 17 1 4 -8 6 -7 6 5 1 20 -10 22 -28 5 -10 -11
-12 -9 -9 7 2 13 10 19 22 17 11 -2 16 1 14 10 -3 7 -13 12 -23 10 -11 -2 -15
2 -13 10 3 7 12 12 22 10 18 -3 20 9 7 56 -5 17 -6 32 -2 32 3 0 8 11 9 26 1
14 -2 23 -8 19 -6 -3 -10 1 -10 9 0 9 -4 16 -8 16 -18 0 -10 42 9 47 37 10 18
24 -28 22 -36 -3 -49 0 -51 12 -1 9 5 15 18 16 13 1 18 -3 14 -10 -3 -7 0 -5
8 3 7 8 23 14 36 12 19 -3 22 1 22 31 0 18 -3 36 -6 40 -8 8 -35 -3 -29 -12 2
-4 -2 -8 -10 -8 -13 0 -13 3 1 18 19 21 11 39 -16 39 -10 0 -21 8 -23 18 -4
16 -5 16 -6 0 0 -10 -5 -18 -11 -18 -5 0 -7 14 -5 30 2 17 -1 30 -7 30 -6 0
-8 -8 -5 -19 4 -15 -1 -17 -24 -15 -15 2 -31 -1 -34 -6 -3 -6 2 -10 12 -11 10
0 13 -3 6 -6 -7 -2 -13 -9 -13 -14 0 -4 7 -6 15 -3 11 5 13 2 9 -10 -6 -15 -9
-15 -30 -1 -17 11 -25 12 -30 3 -4 -6 -3 -8 4 -4 6 3 13 2 17 -4 3 -5 3 -10
-2 -11 -4 0 -21 -2 -38 -4 -18 -3 -25 -1 -17 4 8 5 12 10 10 12 -6 9 77 76 90
72 6 -3 12 -2 12 1 0 4 -10 10 -22 15 -18 6 -10 9 31 9 50 2 53 0 35 -13 -17
-12 -17 -14 -2 -15 9 0 19 -8 21 -17 4 -16 11 29 10 64 0 6 6 9 13 6 8 -3 14
1 14 11 0 9 6 16 13 16 7 0 14 11 15 25 1 19 -3 25 -19 25 -12 0 -17 4 -14 11
4 6 13 8 21 5 8 -3 14 1 14 9 0 18 -21 19 -40 3 -8 -7 -6 -3 4 9 10 13 23 20
27 17 5 -3 9 13 9 35 0 33 -3 40 -19 38 -11 0 -19 -4 -19 -7 2 -19 -6 -25 -32
-25 -16 -1 -30 4 -30 10 0 5 -5 3 -10 -5 -8 -13 -10 -12 -10 3 0 9 7 17 16 17
8 0 13 4 10 9 -7 11 20 8 31 -3 4 -4 3 -6 -2 -4 -6 2 -11 0 -13 -4 -1 -5 0 -8
3 -8 3 0 10 0 15 0 6 0 10 14 10 30 0 22 5 30 18 30 13 0 14 -2 3 -9 -17 -11
-6 -32 13 -25 18 7 18 51 0 58 -7 3 -16 0 -20 -6 -4 -7 -14 -2 -25 13 -18 23
-18 24 -13 2 5 -19 3 -22 -17 -17 -13 3 -93 6 -177 7 -124 0 -152 3 -148 14 4
8 -2 13 -17 12 -12 0 -16 -3 -9 -6 6 -2 12 -9 12 -14 0 -6 -4 -7 -10 -4 -5 3
-10 1 -10 -5 0 -8 -6 -8 -20 0 -11 6 -26 8 -32 4 -7 -5 -9 -2 -6 8 4 8 0 15
-7 15 -11 0 -12 -5 -3 -21 6 -12 15 -24 20 -27 5 -3 3 -9 -6 -12 -10 -4 -16
-1 -16 8 0 8 -5 15 -11 15 -5 0 -8 3 -5 8 2 4 -16 7 -40 6 -24 -1 -44 3 -44 8
0 5 5 6 10 3 6 -3 10 -2 10 3 0 5 -13 9 -30 10 -16 0 -30 -4 -30 -10 0 -5 7
-8 15 -4 8 3 15 1 15 -4 0 -6 -12 -10 -26 -10 -17 0 -24 4 -21 13 3 8 -4 14
-19 15 -17 1 -22 -2 -17 -14 5 -13 7 -13 14 -2 6 9 9 9 9 1 0 -14 -15 -25 -23
-16 -8 7 -112 7 -125 0 -13 -9 -21 2 -15 21 4 15 3 16 -9 1 -13 -16 -48 -22
-48 -8 0 4 8 10 18 12 13 4 11 5 -5 6 -14 1 -23 -5 -23 -14 0 -10 -10 -14 -33
-13 -19 1 -39 -2 -44 -5 -7 -5 -9 0 -6 13 4 15 0 20 -13 20 -15 0 -16 -2 -5
-9 19 -12 -3 -24 -43 -23 -17 0 -33 -3 -36 -7 -3 -5 -11 -3 -18 5 -10 11 -8
15 13 20 14 3 31 1 39 -5 10 -9 15 -8 19 3 8 20 -83 17 -101 -4 -12 -13 -13
-13 -8 3 3 9 1 17 -4 17 -5 0 -11 -8 -13 -17 -4 -15 -5 -15 -6 2 -1 17 -3 18
-11 5 -6 -10 -10 -11 -10 -2 0 6 -5 12 -10 12 -7 0 -7 -6 0 -20 9 -16 8 -18
-5 -14 -8 4 -15 14 -15 23 -1 14 -2 14 -11 -1 -11 -20 -29 -24 -29 -7 0 5 4 7
10 4 6 -3 10 -1 10 4 0 6 -9 11 -21 11 -11 0 -18 -4 -14 -9 3 -5 1 -12 -5 -16
-5 -3 -10 1 -10 9 0 13 -12 16 -60 16 -52 0 -59 -2 -54 -17 5 -17 5 -17 -6 0
-7 11 -24 17 -45 17 l-35 0 1 -55z m700 6 c0 -3 2 -14 4 -23 2 -10 -2 -16 -8
-15 -7 1 -11 -3 -10 -10 2 -8 -4 -10 -15 -6 -14 6 -15 4 -5 -8 10 -13 10 -16
-2 -16 -8 0 -16 6 -19 14 -3 7 -1 13 5 13 6 0 7 4 4 10 -3 5 0 7 8 4 8 -3 20
2 27 11 12 14 10 15 -13 11 -15 -3 -27 0 -27 5 0 5 7 9 16 9 8 0 12 4 9 10 -3
6 1 7 9 4 9 -3 16 -9 17 -13z m-171 -6 c11 -13 10 -14 -5 -8 -14 5 -17 3 -12
-10 3 -8 1 -18 -6 -21 -7 -3 -6 -5 4 -5 8 -1 21 5 27 11 10 10 15 10 22 -1 7
-13 11 -13 27 0 16 13 17 13 4 -3 -15 -19 -41 -24 -41 -8 0 11 -40 -8 -51 -24
-4 -4 -10 -3 -13 3 -4 6 -2 11 5 11 8 0 7 5 -2 17 -8 9 -9 14 -3 10 7 -4 14 3
18 18 7 29 9 30 26 10z m35 -3 c-3 -3 -11 0 -18 7 -9 10 -8 11 6 5 10 -3 15
-9 12 -12z m590 8 c3 -5 1 -10 -4 -10 -6 0 -11 5 -11 10 0 6 2 10 4 10 3 0 8
-4 11 -10z m39 -11 c-8 -14 -21 -11 -21 5 0 8 6 12 14 9 7 -3 10 -9 7 -14z
m97 -23 c5 3 16 -2 25 -10 13 -14 13 -16 1 -16 -9 0 -18 6 -20 13 -3 6 -6 1
-7 -13 l-2 -25 -8 25 c-7 23 -8 23 -9 3 -1 -14 -7 -20 -18 -19 -10 2 -16 7
-13 12 3 5 9 8 14 6 5 -2 6 4 2 13 -3 9 -2 13 4 10 6 -3 10 -1 10 5 0 6 -7 13
-16 17 -13 5 -13 7 -2 14 9 6 16 1 21 -16 5 -14 13 -23 18 -19z m29 29 c0 -2
-9 -3 -19 -2 -11 0 -18 5 -15 9 4 6 34 0 34 -7z m70 -7 c0 -6 -6 -5 -15 2 -10
8 -15 9 -15 2 0 -7 -7 -9 -17 -5 -15 6 -14 7 3 13 22 8 44 2 44 -12z m-1170
-31 c0 -8 -40 -5 -45 4 -4 5 2 6 12 2 15 -5 16 -3 6 8 -21 22 -14 30 7 9 11
-11 20 -21 20 -23z m70 35 c0 -5 -7 -9 -15 -9 -8 0 -12 4 -9 9 3 4 9 8 15 8 5
0 9 -4 9 -8z m90 -4 c0 -11 -12 -10 -30 2 -12 7 -10 9 8 7 12 0 22 -5 22 -9z
m384 -18 c20 0 37 -7 46 -19 10 -15 18 -17 31 -10 24 13 32 -4 9 -19 -12 -7
-21 -8 -25 -2 -9 15 -25 12 -25 -4 0 -8 -4 -17 -9 -21 -6 -3 -6 6 -1 24 10 37
0 49 -17 19 l-14 -23 6 23 c5 18 2 22 -15 22 -15 0 -20 -5 -17 -15 4 -8 3 -16
-1 -19 -4 -2 -8 14 -8 37 -1 23 1 34 3 25 3 -13 14 -18 37 -18z m36 20 c0 -5
-7 -7 -15 -4 -8 4 -15 8 -15 10 0 2 7 4 15 4 8 0 15 -4 15 -10z m43 3 c-7 -2
-19 -2 -25 0 -7 3 -2 5 12 5 14 0 19 -2 13 -5z m37 -3 c0 -5 -4 -10 -10 -10
-5 0 -10 5 -10 10 0 6 5 10 10 10 6 0 10 -4 10 -10z m35 0 c-3 -5 -11 -10 -16
-10 -6 0 -7 5 -4 10 3 6 11 10 16 10 6 0 7 -4 4 -10z m125 0 c0 -5 -2 -10 -4
-10 -3 0 -8 5 -11 10 -3 6 -1 10 4 10 6 0 11 -4 11 -10z m43 -10 c3 -10 -1
-24 -9 -31 -11 -9 -14 -9 -14 0 0 7 -4 10 -9 6 -5 -3 -13 0 -17 6 -4 7 -3 9 2
6 6 -3 16 -1 24 4 13 8 13 10 0 19 -13 8 -13 10 1 10 9 0 19 -9 22 -20z m337
16 c0 -3 -4 -8 -10 -11 -5 -3 -10 -1 -10 4 0 6 5 11 10 11 6 0 10 -2 10 -4z
m-1095 -25 c3 -5 1 -12 -5 -16 -5 -3 -10 1 -10 9 0 18 6 21 15 7z m81 -3 c4
-7 4 -10 -1 -6 -4 4 -14 0 -22 -10 -8 -9 -12 -11 -8 -4 3 6 0 12 -7 13 -10 0
3 9 29 18 1 1 5 -5 9 -11z m-283 -17 c-2 -6 2 -11 8 -11 5 0 8 -4 4 -10 -4 -6
-15 -6 -30 0 -14 5 -25 6 -25 1 0 -4 -7 -8 -16 -8 -15 0 -15 2 1 13 9 7 24 10
33 7 12 -5 14 -2 9 11 -5 12 -3 16 5 13 7 -2 12 -10 11 -16z m140 3 c-3 -9 -9
-12 -12 -7 -3 4 -10 11 -15 16 -5 4 0 7 12 7 15 0 20 -4 15 -16z m712 5 c-5
-7 25 -23 38 -20 5 1 6 -3 2 -9 -3 -6 -11 -7 -17 -4 -7 5 -9 -2 -4 -19 3 -14
2 -28 -3 -31 -5 -3 -9 0 -8 7 0 6 -1 23 -2 37 -1 21 -3 22 -12 10 -9 -13 -10
-13 -6 2 8 23 -3 30 -22 15 -14 -10 -14 -10 -4 4 12 15 47 23 38 8z m45 7 c0
-11 -19 -15 -25 -6 -3 5 1 10 9 10 9 0 16 -2 16 -4z m170 0 c0 -11 -19 -15
-25 -6 -3 5 1 10 9 10 9 0 16 -2 16 -4z m190 -4 c-8 -4 -15 -13 -15 -21 0 -8
-5 -16 -12 -18 -6 -2 -11 2 -9 9 3 23 17 38 34 37 14 0 15 -2 2 -7z m-917 -24
c-4 -7 -8 -16 -8 -20 0 -3 -4 -10 -9 -15 -6 -5 -6 -2 -1 6 6 11 4 13 -11 7
-18 -7 -18 -6 1 13 22 22 40 28 28 9z m757 8 c0 -3 -4 -8 -10 -11 -5 -3 -10
-1 -10 4 0 6 5 11 10 11 6 0 10 -2 10 -4z m-1055 -16 c3 -5 1 -10 -4 -10 -6 0
-11 5 -11 10 0 6 2 10 4 10 3 0 8 -4 11 -10z m155 0 c3 -1 8 -2 12 -1 11 1 2
-29 -12 -42 -12 -10 -12 -9 -2 4 10 13 9 19 -1 28 -8 6 -16 8 -19 5 -3 -3 -9
-1 -12 4 -5 9 14 9 34 2z m280 1 c0 -13 -39 -21 -47 -9 -3 6 -2 8 3 5 6 -3 16
-2 24 4 19 11 20 11 20 0z m304 1 c2 -4 1 -14 -3 -21 -6 -9 -10 -7 -14 8 -5
20 7 29 17 13z m426 -8 c0 -8 -19 -13 -24 -6 -3 5 1 9 9 9 8 0 15 -2 15 -3z
m-1304 -28 c0 -14 -5 -21 -9 -17 -4 4 -5 15 -1 24 9 24 12 21 10 -7z m384 -21
c0 -5 -5 -3 -10 5 -5 8 -10 20 -10 25 0 6 5 3 10 -5 5 -8 10 -19 10 -25z m856
15 c0 -11 -6 -22 -13 -24 -16 -6 -16 -1 -3 25 13 24 16 24 16 -1z m-1171 1 c3
-5 2 -12 -3 -15 -5 -3 -9 1 -9 9 0 17 3 19 12 6z m26 -14 c-10 -9 -11 -8 -5 6
3 10 9 15 12 12 3 -3 0 -11 -7 -18z m39 13 c0 -5 -5 -10 -11 -10 -5 0 -7 5 -4
10 3 6 8 10 11 10 2 0 4 -4 4 -10z m83 -7 c-6 -15 -4 -16 9 -6 8 7 18 10 22 6
4 -4 11 -1 16 7 7 11 10 11 10 2 0 -7 -7 -15 -15 -18 -14 -6 -31 -41 -27 -56
1 -5 -4 -7 -10 -5 -7 1 -12 -3 -11 -8 1 -6 -8 -11 -20 -12 -12 0 -16 1 -9 4 6
3 10 9 6 14 -3 5 2 9 11 9 9 0 14 4 10 10 -3 5 -13 6 -23 3 -14 -5 -15 -3 -5
7 10 11 15 11 28 0 8 -7 15 -10 15 -7 0 3 3 13 7 23 4 11 3 15 -5 10 -13 -8
-26 10 -17 24 10 16 15 11 8 -7z m273 -10 c-4 -4 -12 -1 -19 7 -9 10 -9 11 1
6 7 -4 12 -2 13 6 0 11 2 11 6 0 3 -7 2 -16 -1 -19z m258 9 c47 -3 43 -12 -5
-13 -24 -1 -49 -1 -56 0 -6 1 -14 -3 -18 -9 -3 -5 2 -10 11 -10 10 0 14 -3 11
-6 -11 -12 -94 -16 -101 -6 -3 5 8 8 26 6 23 -3 35 1 46 17 8 12 20 18 29 15
11 -5 13 -2 9 10 -5 13 -3 14 6 7 7 -5 26 -10 42 -11z m79 -4 c24 5 22 -4 -3
-11 -14 -4 -23 1 -31 16 -9 19 -8 20 3 7 7 -9 21 -14 31 -12z m-638 2 c3 -5 1
-10 -4 -10 -6 0 -11 5 -11 10 0 6 2 10 4 10 3 0 8 -4 11 -10z m683 -24 c-1
-33 -2 -34 -30 -24 -34 12 -37 20 -5 16 14 -2 22 2 23 12 3 26 4 30 9 30 2 0
4 -15 3 -34z m47 24 c3 -5 -1 -10 -10 -10 -9 0 -13 5 -10 10 3 6 8 10 10 10 2
0 7 -4 10 -10z m479 -9 c-5 -5 -18 -5 -29 0 -18 9 -18 9 3 5 12 -2 22 1 22 7
0 6 3 7 7 4 4 -4 2 -11 -3 -16z m-760 0 c4 -5 -3 -7 -14 -4 -23 6 -26 13 -6
13 8 0 17 -4 20 -9z m-571 -14 c4 3 7 4 7 2 0 -3 -14 -18 -32 -35 -18 -16 -27
-22 -20 -13 6 9 8 20 4 24 -4 5 -2 5 5 1 6 -3 14 -2 18 4 3 5 1 10 -4 10 -6 0
-11 5 -11 11 0 8 4 9 13 0 8 -6 17 -8 20 -4z m87 -19 c0 -6 -6 -5 -15 2 -8 7
-15 14 -15 16 0 2 7 1 15 -2 8 -4 15 -11 15 -16z m114 7 c-4 -8 -11 -15 -16
-15 -6 0 -5 6 2 15 7 8 14 15 16 15 2 0 1 -7 -2 -15z m230 7 c3 -5 -1 -9 -9
-9 -8 0 -12 4 -9 9 3 4 7 8 9 8 2 0 6 -4 9 -8z m306 -15 c0 -1 -22 -2 -50 -2
-27 0 -50 4 -50 9 0 5 3 7 6 4 3 -3 17 -3 32 2 22 6 62 -3 62 -13z m-440 9 c0
-3 -4 -8 -10 -11 -5 -3 -10 -1 -10 4 0 6 5 11 10 11 6 0 10 -2 10 -4z m76 -5
c-3 -5 -15 -7 -26 -4 -28 7 -25 13 6 13 14 0 23 -4 20 -9z m114 -1 c0 -5 -5
-10 -11 -10 -5 0 -7 5 -4 10 3 6 8 10 11 10 2 0 4 -4 4 -10z m380 -1 c0 -11
-27 -12 -34 -1 -2 4 4 9 15 9 10 1 19 -2 19 -8z m403 5 c-7 -3 -9 -12 -6 -20
3 -8 0 -14 -7 -14 -6 0 -8 5 -5 10 3 6 -3 10 -15 10 -31 0 -16 15 17 17 15 1
23 -1 16 -3z m71 -6 c-3 -4 -16 -8 -30 -8 -13 0 -24 4 -24 8 0 5 13 9 30 9 16
0 27 -4 24 -9z m-1094 -33 c8 -11 10 -17 6 -13 -12 10 -37 -12 -29 -25 4 -6 1
-7 -7 -2 -10 6 -12 4 -7 -8 4 -11 2 -14 -9 -10 -12 4 -12 8 -2 21 7 8 13 18
13 21 0 3 3 5 8 4 4 -2 7 7 7 19 0 12 1 19 3 17 1 -2 9 -13 17 -24z m177 5
c-1 -22 -18 -32 -35 -21 -7 4 -8 12 -2 21 8 12 10 11 11 -5 0 -19 1 -18 11 3
14 27 17 28 15 2z m-236 -13 c-10 -9 -11 -8 -5 6 3 10 9 15 12 12 3 -3 0 -11
-7 -18z m139 8 c10 -12 10 -15 -2 -15 -8 0 -15 7 -15 15 0 8 1 15 2 15 2 0 8
-7 15 -15z m125 5 c-3 -5 4 -11 17 -11 l23 -2 -23 -4 c-12 -2 -20 -8 -18 -12
3 -4 -1 -8 -9 -8 -8 0 -11 5 -7 11 4 6 7 14 8 19 3 15 4 17 10 17 3 0 2 -4 -1
-10z m85 -5 c0 -8 -4 -15 -10 -15 -5 0 -7 7 -4 15 4 8 8 15 10 15 2 0 4 -7 4
-15z m834 0 c19 -14 12 -21 -16 -16 -4 0 -10 -10 -14 -24 -3 -14 -10 -25 -15
-25 -12 0 -11 24 1 36 7 7 6 11 -5 11 -8 0 -13 -2 -10 -5 2 -3 -7 -14 -21 -24
-14 -11 -28 -18 -31 -15 -8 9 7 27 23 27 8 0 14 5 14 11 0 6 -9 9 -20 6 -11
-3 -23 -1 -26 4 -3 5 13 9 35 9 23 0 41 5 41 10 0 14 22 12 44 -5z m-1342 -2
c-6 -2 -10 -9 -7 -14 4 -5 -2 -6 -11 -2 -11 4 -15 3 -10 -5 3 -6 2 -13 -4 -17
-5 -3 -10 1 -10 9 0 15 27 36 45 35 6 0 4 -3 -3 -6z m331 -23 c-3 -12 -8 -19
-11 -16 -5 6 5 36 12 36 2 0 2 -9 -1 -20z m-388 -12 c-1 -12 -7 -24 -13 -26
-15 -5 -15 3 -2 29 14 25 17 24 15 -3z m295 8 c0 -2 -7 -7 -16 -10 -8 -3 -12
-2 -9 4 6 10 25 14 25 6z m35 -6 c3 -6 -1 -7 -9 -4 -18 7 -21 14 -7 14 6 0 13
-4 16 -10z m212 -12 c-7 -11 -14 -13 -18 -6 -4 6 -13 14 -20 19 -10 6 -4 8 17
7 27 -2 30 -4 21 -20z m693 18 c0 -11 -19 -15 -25 -6 -3 5 1 10 9 10 9 0 16
-2 16 -4z m37 -2 c-3 -3 -12 -4 -19 -1 -8 3 -5 6 6 6 11 1 17 -2 13 -5z
m-1079 -45 c-3 -8 -7 -3 -11 10 -4 17 -3 21 5 13 5 -5 8 -16 6 -23z m177 13
c-3 -3 -11 0 -18 7 -9 10 -8 11 6 5 10 -3 15 -9 12 -12z m66 9 c7 10 8 9 6 -6
-1 -11 -7 -27 -12 -35 -5 -8 -10 -22 -10 -30 0 -8 -8 -16 -18 -18 -13 -3 -16
2 -13 20 2 13 9 22 15 21 10 -3 15 13 12 47 0 12 1 12 6 1 4 -11 7 -11 14 0z
m-391 -5 c0 -3 -4 -8 -10 -11 -5 -3 -10 -1 -10 4 0 6 5 11 10 11 6 0 10 -2 10
-4z m1170 -6 c-12 -8 -8 -10 15 -11 l30 -1 -30 -8 -30 -8 29 -1 c31 -1 31 -11
-1 -15 -10 -2 -23 4 -30 13 -6 9 -15 13 -19 9 -9 -10 15 -38 32 -38 8 0 14 -4
14 -10 0 -5 -9 -10 -20 -10 -12 0 -20 7 -20 18 -1 16 -1 16 -11 0 -5 -10 -19
-18 -30 -18 -11 0 -18 4 -14 10 3 5 12 7 20 3 8 -3 15 1 15 8 0 7 -3 9 -7 6
-3 -4 -12 -2 -19 4 -9 7 -17 4 -28 -13 -11 -15 -16 -17 -16 -8 0 13 -2 13 -9
1 -5 -8 -14 -10 -21 -6 -8 5 -11 4 -7 -2 4 -6 -3 -8 -18 -5 -14 2 -25 8 -25
13 0 4 9 6 19 4 11 -2 35 5 54 15 20 11 45 17 56 15 13 -2 21 1 21 9 0 7 10
18 23 24 28 13 47 15 27 2z m-1209 -23 c-10 -9 -11 -8 -5 6 3 10 9 15 12 12 3
-3 0 -11 -7 -18z m154 13 c-3 -5 -12 -10 -18 -10 -7 0 -6 4 3 10 19 12 23 12
15 0z m63 -26 c0 -15 -4 -22 -10 -16 -5 5 -6 16 -2 25 9 23 12 21 12 -9z m137
19 c-11 -3 -25 -11 -30 -18 -9 -10 -15 -10 -32 4 -20 17 -19 17 31 18 28 0 42
-2 31 -4z m142 1 c-3 -3 -12 -4 -19 -1 -8 3 -5 6 6 6 11 1 17 -2 13 -5z m-468
-30 c4 3 7 -5 8 -17 0 -12 -1 -16 -4 -9 -3 6 -8 10 -12 8 -4 -3 -7 5 -8 17 0
12 1 16 4 9 3 -6 8 -10 12 -8z m91 -36 c0 -10 -5 -18 -11 -18 -5 0 -7 5 -4 10
3 6 3 19 0 31 -6 17 -9 18 -23 7 -15 -12 -16 -11 -3 5 14 18 16 18 28 1 7 -10
13 -26 13 -36z m35 35 c-2 -10 -4 -22 -4 -26 -1 -5 -6 -5 -12 -1 -8 4 -7 9 2
15 11 7 11 9 -1 9 -13 0 -13 1 0 10 19 13 19 13 15 -7z m215 11 c0 -8 -19 -13
-24 -6 -3 5 1 9 9 9 8 0 15 -2 15 -3z m-374 -29 c1 -8 -2 -15 -6 -15 -5 0 -8
9 -7 20 1 21 10 18 13 -5z m291 0 c0 -8 -4 -15 -9 -15 -10 0 -11 14 -1 23 9
10 10 9 10 -8z m1018 -15 c-6 -10 15 -14 44 -11 7 2 10 -2 6 -8 -3 -6 -15 -11
-25 -11 -11 0 -24 -10 -31 -22 -10 -18 -9 -20 5 -15 8 3 18 2 20 -2 3 -5 18
-6 33 -3 24 4 25 3 12 -10 -10 -11 -16 -13 -21 -4 -5 7 -8 6 -8 -4 0 -13 -1
-13 -10 0 -6 10 -10 11 -10 3 0 -9 -6 -7 -19 4 -11 9 -18 20 -15 25 3 4 -2 5
-10 2 -9 -3 -16 -1 -16 6 0 6 4 9 9 5 6 -3 15 4 21 15 6 11 8 20 5 20 -4 0 -3
5 0 10 3 6 8 10 11 10 3 0 2 -4 -1 -10z m-1339 -20 c0 -11 -6 -20 -13 -20 -19
0 -9 31 12 40 1 0 1 -9 1 -20z m176 -12 c-7 -7 -12 -8 -12 -2 0 14 12 26 19
19 2 -3 -1 -11 -7 -17z m78 12 c0 -5 -7 -7 -15 -4 -8 4 -15 8 -15 10 0 2 7 4
15 4 8 0 15 -4 15 -10z m878 -9 c3 -9 0 -12 -10 -8 -9 3 -21 0 -27 -6 -6 -6
-11 -7 -11 -1 0 5 -5 2 -10 -6 -8 -11 -9 -9 -6 10 5 30 1 26 33 25 14 0 28 -6
31 -14z m37 9 c-3 -5 -10 -10 -16 -10 -5 0 -9 5 -9 10 0 6 7 10 16 10 8 0 12
-4 9 -10z m-1075 -63 c0 -5 -7 -2 -15 7 -8 8 -15 23 -15 33 1 14 4 13 15 -7 8
-14 14 -29 15 -33z m-68 27 c-5 -9 -8 -26 -5 -38 3 -20 3 -20 -6 -1 -8 18 2
55 15 55 3 0 1 -7 -4 -16z m220 -1 c-6 -3 -10 -9 -6 -14 3 -5 0 -9 -5 -9 -6 0
-11 4 -11 8 0 12 23 32 29 25 3 -3 0 -8 -7 -10z m958 0 c14 -6 31 -8 38 -6 6
3 12 1 12 -5 0 -5 10 -12 23 -15 20 -5 20 -5 5 7 -28 20 -21 29 7 10 14 -9 24
-18 22 -21 -10 -9 -47 -11 -53 -2 -4 6 -11 5 -20 -2 -12 -10 -14 -10 -12 0 3
15 -29 24 -38 10 -3 -5 0 -9 7 -9 7 0 10 -3 6 -6 -3 -3 -11 -3 -17 1 -8 5 -8
10 0 20 8 9 8 15 0 20 -5 3 -10 0 -10 -7 0 -9 -2 -10 -8 -1 -5 8 -14 6 -31 -8
-14 -12 -18 -19 -10 -20 11 0 11 -2 1 -6 -7 -3 -20 3 -28 13 -14 17 -15 17
-10 2 3 -10 1 -18 -4 -18 -11 0 -13 23 -3 33 3 4 12 2 19 -4 8 -7 14 -7 19 1
3 5 1 10 -4 10 -6 0 -11 4 -11 8 0 11 70 8 100 -5z m-1084 -18 c1 -8 -1 -17
-5 -19 -4 -3 -8 7 -9 21 -2 27 10 25 14 -2z m51 10 c0 -8 -4 -12 -9 -9 -5 3
-6 10 -3 15 9 13 12 11 12 -6z m30 0 c0 -8 -4 -12 -9 -9 -4 3 -8 9 -8 15 0 5
4 9 8 9 5 0 9 -7 9 -15z m110 9 c-3 -3 -12 -4 -19 -1 -8 3 -5 6 6 6 11 1 17
-2 13 -5z m-325 -36 c-7 -7 -12 -8 -12 -2 0 14 12 26 19 19 2 -3 -1 -11 -7
-17z m155 0 c-3 -8 -6 -5 -6 6 -1 11 2 17 5 13 3 -3 4 -12 1 -19z m1018 2 c3
-5 1 -10 -4 -10 -6 0 -11 5 -11 10 0 6 2 10 4 10 3 0 8 -4 11 -10z m-918 -6
c-3 -3 -12 -4 -19 -1 -8 3 -5 6 6 6 11 1 17 -2 13 -5z m-162 -70 c-14 -27 -15
-27 -15 -6 0 16 -4 21 -12 16 -10 -6 -10 -4 0 7 14 16 16 33 2 24 -5 -3 -10
-4 -10 0 0 3 10 9 23 14 28 11 34 -13 12 -55z m108 35 c-4 -15 -9 -17 -17 -9
-8 8 -7 13 4 20 8 5 16 10 17 10 0 0 -1 -9 -4 -21z m1084 15 c-3 -3 -12 -4
-19 -1 -8 3 -5 6 6 6 11 1 17 -2 13 -5z m-1243 -19 c3 -8 1 -15 -4 -15 -5 0
-7 -8 -3 -17 4 -11 2 -15 -3 -10 -11 10 -13 57 -3 57 4 0 9 -7 13 -15z m121 5
c3 -6 -1 -7 -9 -4 -18 7 -21 14 -7 14 6 0 13 -4 16 -10z m24 -34 c8 -10 9 -16
1 -21 -6 -4 -9 -1 -8 7 2 7 -3 12 -10 10 -8 -1 -11 2 -7 8 8 13 10 13 24 -4z
m354 2 c9 2 17 -1 17 -6 0 -16 -25 -20 -43 -7 -19 14 -23 30 -4 18 6 -4 20 -6
30 -5z m624 -3 c5 -4 2 -5 -4 -1 -7 4 -13 2 -13 -4 0 -6 -4 -8 -10 -5 -5 3
-10 0 -10 -7 0 -10 -2 -10 -9 0 -10 17 -21 17 -31 2 -9 -14 -30 -5 -30 13 0 7
4 6 10 -3 7 -12 10 -12 10 -1 0 7 6 11 15 7 8 -3 15 -2 15 2 0 10 48 8 57 -3z
m-932 -5 c-3 -5 -12 -10 -18 -10 -7 0 -6 4 3 10 19 12 23 12 15 0z m226 -29
c-6 -10 -8 -20 -6 -23 2 -2 -6 -4 -19 -4 -16 0 -22 4 -19 14 5 10 8 11 13 1 6
-8 11 -5 19 10 7 11 14 21 17 21 2 0 0 -8 -5 -19z m866 -5 c-3 -8 -1 -16 6
-19 6 -2 5 -6 -5 -9 -11 -5 -15 -2 -13 10 2 9 4 20 4 25 1 4 4 7 7 7 3 0 4 -6
1 -14z m-1132 -5 c3 -5 2 -12 -3 -15 -5 -3 -9 1 -9 9 0 17 3 19 12 6z m142
-26 c2 -19 -1 -35 -6 -35 -7 0 -8 53 -2 68 4 8 6 -2 8 -33z m56 4 c-9 -9 -12
-7 -10 9 1 14 5 18 11 12 7 -7 6 -14 -1 -21z m145 17 c-7 -8 -15 -12 -17 -11
-5 6 10 25 20 25 5 0 4 -6 -3 -14z m889 8 c-3 -3 -12 -4 -19 -1 -8 3 -5 6 6 6
11 1 17 -2 13 -5z m-941 -40 c-4 -18 -1 -24 8 -21 7 3 13 -1 13 -9 0 -17 -19
-18 -35 -2 -6 6 -15 8 -19 4 -4 -4 -1 -11 6 -15 10 -7 10 -10 1 -16 -9 -6 -9
-9 1 -16 10 -6 7 -8 -8 -6 -14 1 -23 9 -26 24 -2 13 0 23 4 23 5 0 9 6 9 14 0
9 7 12 20 9 12 -3 20 -2 19 3 -3 15 1 34 6 34 3 0 3 -12 1 -26z m960 14 c4 -6
3 -8 -3 -5 -6 4 -13 -2 -16 -13 -3 -11 -11 -20 -19 -19 -10 0 -10 2 0 6 6 2
12 12 12 21 -1 14 -4 12 -20 -6 -11 -13 -24 -21 -30 -17 -16 10 -12 25 5 19 8
-4 17 1 21 10 7 19 39 21 50 4z m-1163 -43 c7 0 15 9 19 20 4 12 6 3 6 -25 0
-25 -2 -39 -5 -32 -2 6 -9 10 -14 7 -5 -4 -6 2 -2 11 4 12 3 15 -5 10 -7 -4
-12 -13 -12 -21 0 -8 -4 -16 -9 -19 -5 -3 -7 8 -6 24 1 18 -3 31 -12 34 -8 3
-11 11 -7 17 5 8 11 6 21 -7 8 -10 19 -19 26 -19z m-83 15 c0 -5 -2 -10 -4
-10 -3 0 -8 5 -11 10 -3 6 -1 10 4 10 6 0 11 -4 11 -10z m175 0 c-3 -5 -10
-10 -16 -10 -5 0 -9 5 -9 10 0 6 7 10 16 10 8 0 12 -4 9 -10z m38 -17 c3 -15
-1 -32 -8 -40 -18 -17 -25 -17 -25 2 0 8 7 15 15 15 11 0 12 5 5 25 -5 14 -6
25 -1 25 5 0 11 -12 14 -27z m907 17 c11 -8 9 -9 -12 -8 -16 1 -28 6 -28 10 0
11 22 10 40 -2z m140 0 c0 -5 -5 -10 -11 -10 -5 0 -7 5 -4 10 3 6 8 10 11 10
2 0 4 -4 4 -10z m-1423 -22 c-3 -8 -6 -5 -6 6 -1 11 2 17 5 13 3 -3 4 -12 1
-19z m47 10 c-3 -4 2 -8 11 -8 9 0 14 -4 11 -9 -4 -5 0 -12 6 -15 7 -3 4 -4
-7 -3 -15 1 -20 -4 -19 -20 1 -13 -3 -20 -7 -17 -5 3 -9 -3 -9 -12 0 -28 -8
-12 -14 29 -4 24 -2 37 5 37 6 0 9 6 6 13 -3 8 1 14 9 14 7 0 11 -4 8 -9z
m116 -30 c0 -9 -9 -22 -20 -28 -12 -6 -20 -21 -20 -36 0 -14 -4 -23 -10 -19
-6 4 -7 11 -4 17 4 6 7 24 6 39 -1 32 6 36 28 17 8 -7 7 -4 -2 7 -16 20 -16
21 2 21 12 0 20 -7 20 -18z m22 -5 c-3 -16 -7 -22 -10 -15 -4 13 4 42 11 42 2
0 2 -12 -1 -27z m149 -1 c-9 -33 -32 -43 -24 -10 5 23 5 23 -10 3 -8 -11 -13
-24 -10 -29 4 -5 2 -6 -4 -3 -5 3 -8 19 -5 35 3 24 9 29 32 30 25 1 27 -2 21
-26z m995 19 c-3 -5 5 -11 19 -13 28 -6 35 8 8 15 -14 4 -12 5 5 6 12 0 22 -4
22 -9 0 -6 6 -10 14 -8 8 2 14 -1 13 -7 -1 -5 -8 -8 -16 -7 -7 2 -10 -1 -6 -7
3 -6 0 -11 -9 -11 -8 0 -17 6 -20 13 -5 9 -7 9 -12 0 -4 -10 -10 -10 -25 0
-23 14 -25 37 -3 37 8 0 13 -4 10 -9z m-856 -27 c0 -17 -22 -14 -28 4 -2 7 3
12 12 12 9 0 16 -7 16 -16z m-500 -46 c0 -12 -3 -18 -7 -14 -11 10 -12 36 -2
36 5 0 9 -10 9 -22z m258 -24 c-3 -52 -17 -52 -15 0 1 25 5 42 9 40 5 -3 7
-21 6 -40z m32 42 c0 -3 -4 -8 -10 -11 -5 -3 -10 -1 -10 4 0 6 5 11 10 11 6 0
10 -2 10 -4z m115 -22 c0 -32 -22 -53 -31 -31 -3 10 -1 23 5 31 6 7 9 15 6 18
-3 2 1 5 8 5 7 0 13 -11 12 -23z m468 9 c-4 -10 3 -12 30 -9 26 3 40 -1 53
-15 16 -17 16 -19 1 -19 -10 0 -17 -8 -17 -20 0 -24 -10 -25 -36 -4 -18 14
-18 14 6 3 14 -6 22 -8 18 -4 -4 4 -3 17 3 29 10 21 10 21 -7 1 -16 -20 -16
-20 -11 3 3 12 1 22 -4 22 -5 0 -9 -4 -9 -10 0 -13 -37 -7 -52 8 -9 9 -9 12 1
12 7 0 10 4 7 8 -3 5 1 9 8 9 8 0 12 -6 9 -14z m103 2 c-2 -7 2 -12 9 -12 7 0
11 7 8 15 -5 12 -2 12 14 4 15 -8 23 -8 32 1 10 9 12 9 9 -3 -2 -11 7 -15 42
-15 36 0 46 -4 49 -20 3 -17 1 -18 -13 -6 -14 11 -16 11 -16 -3 0 -9 8 -16 17
-16 15 0 14 -2 -3 -15 -10 -8 -26 -14 -34 -15 -13 0 -13 1 0 10 13 8 12 10 -2
10 -10 0 -18 -4 -18 -10 0 -5 -4 -10 -8 -10 -5 0 -9 7 -9 15 0 8 6 15 12 15 6
0 12 6 12 14 0 8 -6 12 -13 9 -6 -2 -15 1 -19 7 -5 8 -13 6 -26 -6 -10 -9 -16
-20 -14 -24 3 -4 -2 -13 -10 -20 -13 -11 -15 -10 -9 6 5 18 5 18 -10 0 -9 -11
-19 -17 -22 -13 -3 3 6 18 22 32 15 14 20 23 11 19 -11 -4 -19 0 -24 12 -3 11
-11 22 -17 26 -6 4 -1 6 12 5 12 -1 21 -6 18 -12z m-941 -35 c-6 -10 3 -13 38
-13 9 0 17 -3 17 -8 0 -5 -10 -7 -22 -5 -13 3 -28 5 -35 5 -6 1 -11 15 -11 32
1 24 3 27 10 15 5 -9 6 -21 3 -26z m55 9 c0 -5 -7 -9 -15 -9 -9 0 -12 6 -9 15
6 15 24 11 24 -6z m96 -17 c1 -26 -12 -42 -51 -63 -11 -5 -8 0 8 11 29 23 28
43 -1 33 -9 -3 -14 -3 -10 1 3 4 14 9 25 10 13 2 17 10 15 27 -2 13 0 20 4 16
5 -4 9 -20 10 -35z m32 24 c-7 -8 -15 -12 -17 -11 -5 6 10 25 20 25 5 0 4 -6
-3 -14z m80 -19 c-1 -21 -6 -34 -15 -34 -16 0 -17 13 -3 22 8 5 7 12 -2 23
-10 12 -10 14 0 8 6 -4 12 -2 12 3 0 6 2 11 5 11 2 0 4 -15 3 -33z m32 11 c0
-7 -5 -20 -10 -28 -8 -12 -10 -9 -10 13 0 15 5 27 10 27 6 0 10 -6 10 -12z
m713 -39 c-3 -10 -9 -19 -12 -19 -16 0 -19 13 -9 36 13 28 29 14 21 -17z
m-966 -31 c2 -16 0 -16 -13 -4 -17 18 -18 23 -1 23 7 0 14 -9 14 -19z m-80
-60 c-3 -8 -6 -5 -6 6 -1 11 2 17 5 13 3 -3 4 -12 1 -19z m63 11 c0 -6 -4 -8
-9 -4 -5 3 -12 1 -16 -5 -4 -6 -11 -8 -16 -4 -5 3 -7 9 -5 13 7 11 46 11 46 0z
m95 1 c3 -5 1 -10 -4 -10 -6 0 -11 5 -11 10 0 6 2 10 4 10 3 0 8 -4 11 -10z
m-155 -50 c0 -5 -2 -10 -4 -10 -3 0 -8 5 -11 10 -3 6 -1 10 4 10 6 0 11 -4 11
-10z m33 -10 c-3 -11 -7 -20 -8 -20 -1 0 -5 9 -8 20 -3 12 0 20 8 20 8 0 11
-8 8 -20z m71 9 c-2 -4 -15 -6 -29 -6 -13 0 -22 3 -20 7 3 4 16 7 29 6 13 0
22 -4 20 -7z m-26 -36 c-9 -10 -14 -26 -13 -35 2 -10 -1 -20 -6 -24 -5 -3 -6
-10 -3 -16 4 -6 2 -8 -3 -5 -7 4 -8 20 -3 41 4 19 5 38 1 42 -3 4 -1 4 6 0 6
-3 14 -2 18 4 3 5 9 10 12 10 3 0 -1 -8 -9 -17z m49 -8 c0 -7 -8 -10 -19 -7
-20 5 -17 19 5 19 7 0 14 -6 14 -12z m827 -3 c2 -4 -4 -9 -15 -9 -11 -1 -17 2
-14 8 7 11 22 12 29 1z m-859 -22 c-3 -5 -11 -10 -16 -10 -6 0 -7 5 -4 10 3 6
11 10 16 10 6 0 7 -4 4 -10z m1314 -16 c-9 -11 -8 -14 2 -15 8 -1 -2 -5 -21
-8 -41 -8 -72 -3 -64 11 3 5 17 7 29 4 14 -3 27 -1 31 6 4 7 3 8 -4 4 -7 -4
-18 -4 -24 0 -9 6 -5 10 12 14 35 9 54 2 39 -16z m-1375 1 c-4 -8 -8 -15 -10
-15 -2 0 -4 7 -4 15 0 8 4 15 10 15 5 0 7 -7 4 -15z m926 -21 c0 -2 -7 -4 -15
-4 -8 0 -15 4 -15 10 0 5 7 7 15 4 8 -4 15 -8 15 -10z m-807 -14 c3 -11 1 -20
-4 -20 -5 0 -9 9 -9 20 0 11 2 20 4 20 2 0 6 -9 9 -20z m1008 2 c11 -9 19 -21
19 -27 0 -5 -5 -3 -10 5 -8 12 -13 13 -30 3 -24 -16 -30 -16 -30 -2 0 5 4 8 9
4 5 -3 12 -1 15 4 4 5 -5 8 -18 7 -14 -2 -27 2 -29 8 -7 18 53 16 74 -2z m71
-1 c-4 -10 -7 -11 -10 -3 -2 7 -8 12 -13 12 -6 0 -7 -4 -4 -10 3 -5 2 -10 -4
-10 -13 0 -22 15 -14 23 3 4 16 6 28 5 16 -2 21 -7 17 -17z m73 1 c3 -8 3 -17
0 -20 -3 -3 -5 -1 -5 5 0 6 -9 9 -20 6 -15 -4 -19 -1 -15 9 8 19 33 19 40 0z
m-1241 -14 c3 5 20 6 38 4 l33 -5 -28 -8 c-15 -4 -39 -6 -52 -3 -26 5 -35 -10
-12 -19 9 -4 9 -6 0 -6 -14 -1 -35 33 -26 42 3 4 14 2 24 -3 10 -6 20 -6 23
-2z m936 8 c0 -2 -13 -6 -30 -8 -16 -3 -30 -1 -30 4 0 4 14 8 30 8 17 0 30 -2
30 -4z m-997 -20 c4 -10 1 -13 -8 -9 -8 3 -12 9 -9 14 7 12 11 11 17 -5z m992
-6 c-3 -6 5 -10 19 -10 14 0 27 -4 30 -8 2 -4 -8 -7 -22 -6 -15 0 -30 -4 -34
-10 -5 -7 -8 -6 -9 4 0 10 -3 9 -8 -4 -4 -11 -18 -21 -30 -23 -21 -3 -20 0 11
31 31 33 56 47 43 26z m-888 -11 c-9 -6 -14 -15 -11 -21 5 -7 2 -8 -6 -3 -10
6 -12 0 -7 -31 4 -27 3 -34 -3 -24 -5 8 -10 25 -10 38 0 15 -4 21 -12 16 -7
-5 -8 -3 -4 5 8 12 42 29 61 30 6 0 2 -4 -8 -10z m47 -3 c-3 -8 8 -29 24 -47
16 -19 29 -42 29 -51 0 -15 -2 -15 -22 0 -13 9 -20 22 -18 29 3 7 -2 22 -11
35 -18 25 -21 48 -6 48 5 0 7 -6 4 -14z m35 2 c-3 -27 1 -39 13 -32 7 5 8 3 3
-5 -11 -18 -40 12 -32 33 8 19 19 21 16 4z m71 -10 c0 -6 -3 -8 -7 -5 -3 4
-13 1 -21 -6 -11 -8 -14 -8 -9 0 4 6 1 14 -5 16 -7 3 -1 6 15 6 15 1 27 -4 27
-11z m-225 -18 c3 -5 1 -10 -4 -10 -6 0 -11 5 -11 10 0 6 2 10 4 10 3 0 8 -4
11 -10z m225 -10 c0 -5 -4 -10 -10 -10 -5 0 -10 5 -10 10 0 6 5 10 10 10 6 0
10 -4 10 -10z m-200 -36 c0 -8 -4 -13 -9 -9 -13 7 -30 -25 -24 -45 4 -12 2
-12 -5 -2 -13 19 -3 60 17 65 9 3 17 5 19 6 1 0 2 -6 2 -15z m190 -4 c12 -7
12 -10 1 -10 -7 0 -11 -6 -7 -15 3 -8 0 -15 -5 -15 -6 0 -9 9 -6 20 3 10 0 21
-7 24 -6 2 -6 5 -1 5 6 0 17 -4 25 -9z m-124 -35 c1 -8 -1 -17 -5 -19 -4 -3
-8 7 -9 21 -2 27 10 25 14 -2z m-31 4 c11 -16 1 -19 -13 -3 -7 8 -8 14 -3 14
5 0 13 -5 16 -11z m-103 -21 c-7 -7 -12 -8 -12 -2 0 14 12 26 19 19 2 -3 -1
-11 -7 -17z m158 -20 c-1 -35 -3 -40 -11 -25 -10 18 -11 18 -31 0 -11 -10 -24
-27 -29 -38 -7 -19 -8 -19 -8 3 -1 16 -5 21 -13 16 -10 -6 -10 -5 -1 8 7 8 10
18 6 21 -3 4 -1 7 6 7 8 0 11 -7 7 -15 -3 -8 0 -15 5 -15 7 0 9 11 6 27 -5 25
-4 26 8 10 8 -12 15 -14 20 -7 3 5 11 8 16 5 5 -4 9 5 9 19 0 14 2 26 5 26 3
0 5 -19 5 -42z m97 16 c-3 -3 -12 -4 -19 -1 -8 3 -5 6 6 6 11 1 17 -2 13 -5z
m-197 -34 c3 0 -3 -5 -12 -11 -11 -6 -15 -16 -11 -26 4 -10 2 -14 -4 -10 -6 4
-10 17 -10 31 0 22 3 24 37 16z m129 -34 c8 -10 9 -16 1 -21 -6 -4 -9 -1 -8 7
2 7 -3 12 -10 10 -8 -1 -11 2 -7 8 8 13 10 13 24 -4z m90 -10 c8 -13 11 -30 8
-38 -3 -7 -6 -4 -6 9 -1 12 -5 25 -11 28 -5 3 -7 0 -4 -9 3 -8 1 -23 -5 -34
-8 -15 -7 -19 2 -18 6 0 13 -3 14 -9 0 -5 -3 -9 -8 -7 -5 1 -9 -3 -9 -9 0 -20
-23 -3 -25 19 -1 11 2 19 7 16 8 -5 10 2 10 49 1 33 11 35 27 3z m-44 4 c-3
-5 -12 -10 -18 -10 -7 0 -6 4 3 10 19 12 23 12 15 0z m-42 -36 c15 2 27 -1 27
-5 0 -5 -6 -9 -14 -9 -9 0 -12 -8 -8 -26 3 -19 1 -25 -7 -20 -6 4 -10 15 -9
24 2 13 -6 18 -39 20 -24 2 -43 7 -43 12 0 4 8 6 19 3 10 -3 22 1 26 7 5 8 10
9 14 2 4 -6 19 -9 34 -8z m117 -60 c0 -19 -4 -25 -15 -20 -8 3 -15 1 -15 -5 0
-6 -4 -7 -10 -4 -5 3 -10 2 -10 -3 0 -6 -6 -12 -13 -15 -8 -3 -13 3 -13 14 0
18 9 22 49 22 10 0 17 7 17 18 0 11 2 19 5 19 3 0 5 -12 5 -26z m61 3 c-13
-13 -26 -3 -16 12 3 6 11 8 17 5 6 -4 6 -10 -1 -17z m-284 -11 c-1 -6 4 -10
11 -8 8 1 11 -2 7 -7 -3 -6 -12 -8 -20 -5 -19 8 -26 31 -10 31 8 0 13 -5 12
-11z m109 -25 c0 -11 -4 -17 -8 -15 -4 3 -8 12 -8 20 0 8 4 14 8 14 4 0 8 -9
8 -19z m144 9 c0 -5 -2 -10 -4 -10 -3 0 -8 5 -11 10 -3 6 -1 10 4 10 6 0 11
-4 11 -10z m40 6 c0 -2 -7 -9 -15 -16 -12 -10 -15 -10 -15 4 0 9 7 16 15 16 8
0 15 -2 15 -4z m-227 -31 c-3 -9 -8 -14 -10 -11 -3 3 -2 9 2 15 9 16 15 13 8
-4z m-23 1 c0 -3 -4 -8 -10 -11 -5 -3 -10 -1 -10 4 0 6 5 11 10 11 6 0 10 -2
10 -4z m283 -20 c6 -15 -17 -16 -30 -1 -4 4 -2 5 5 1 6 -4 12 -2 12 3 0 15 7
14 13 -3z m-213 -6 c0 -5 -2 -10 -4 -10 -3 0 -8 5 -11 10 -3 6 -1 10 4 10 6 0
11 -4 11 -10z m40 4 c0 -8 -19 -13 -24 -6 -3 5 1 9 9 9 8 0 15 -2 15 -3z"/>
<path d="M465 1130 c-3 -5 -1 -10 4 -10 6 0 11 5 11 10 0 6 -2 10 -4 10 -3 0
-8 -4 -11 -10z"/>
<path d="M106 973 c-6 -14 -5 -15 5 -6 7 7 10 15 7 18 -3 3 -9 -2 -12 -12z"/>
<path d="M85 810 c-3 -5 -1 -10 4 -10 6 0 11 5 11 10 0 6 -2 10 -4 10 -3 0 -8
-4 -11 -10z"/>
<path d="M720 1489 c0 -5 5 -7 10 -4 6 3 10 8 10 11 0 2 -4 4 -10 4 -5 0 -10
-5 -10 -11z"/>
<path d="M1130 1490 c-9 -6 -10 -10 -3 -10 6 0 15 5 18 10 8 12 4 12 -15 0z"/>
<path d="M1165 1490 c3 -5 11 -10 16 -10 6 0 7 5 4 10 -3 6 -11 10 -16 10 -6
0 -7 -4 -4 -10z"/>
<path d="M1250 1490 c0 -5 7 -7 15 -4 8 4 15 8 15 10 0 2 -7 4 -15 4 -8 0 -15
-4 -15 -10z"/>
<path d="M1330 1496 c0 -2 7 -6 15 -10 8 -3 15 -1 15 4 0 6 -7 10 -15 10 -8 0
-15 -2 -15 -4z"/>
<path d="M1385 1490 c3 -5 8 -10 11 -10 2 0 4 5 4 10 0 6 -5 10 -11 10 -5 0
-7 -4 -4 -10z"/>
<path d="M930 1250 c11 -7 5 -9 -23 -8 -20 1 -40 -2 -44 -5 -3 -4 1 -7 9 -7 9
0 19 -7 22 -16 5 -13 4 -14 -7 -6 -8 7 -17 9 -20 5 -4 -3 -9 2 -13 11 -4 9
-17 16 -33 15 -25 0 -25 0 -3 -9 32 -13 27 -21 -9 -13 -24 5 -31 3 -27 -8 3
-10 28 -14 99 -15 52 -1 107 -6 122 -13 17 -6 26 -7 22 -1 -3 6 -14 10 -23 11
-11 0 -12 2 -4 6 6 2 9 10 5 16 -4 7 -8 17 -8 22 0 6 -10 10 -22 10 -11 0 -25
3 -29 8 -4 4 -12 7 -18 7 -6 0 -4 -5 4 -10z m-15 -28 c-3 -3 -11 0 -18 7 -9
10 -8 11 6 5 10 -3 15 -9 12 -12z m65 4 c-10 -13 -40 -12 -40 1 0 3 7 3 15 0
8 -4 17 -2 20 3 4 6 9 10 12 10 3 0 0 -6 -7 -14z"/>
<path d="M640 1211 c0 -6 5 -13 10 -16 6 -3 10 1 10 9 0 9 -4 16 -10 16 -5 0
-10 -4 -10 -9z"/>
<path d="M710 1209 c0 -5 -6 -6 -14 -3 -8 3 -17 1 -20 -4 -6 -10 79 -11 89 -1
3 4 -8 9 -25 11 -16 3 -30 1 -30 -3z"/>
<path d="M1470 1195 c-19 -23 -21 -68 -3 -87 18 -20 33 -23 33 -8 0 6 -6 10
-14 10 -8 0 -17 4 -20 9 -4 5 3 7 14 4 11 -3 20 -1 20 5 0 6 -8 13 -17 15 -17
4 -17 5 0 6 9 0 17 5 17 10 0 5 -8 12 -17 14 -17 4 -17 5 0 6 9 0 17 8 17 16
0 19 -14 19 -30 0z"/>
<path d="M714 1019 c-32 -33 -54 -59 -49 -58 6 0 53 22 105 49 102 52 101 48
19 64 -10 2 -41 -21 -75 -55z"/>
<path d="M330 966 c0 -31 6 -34 13 -6 3 11 1 23 -4 26 -5 3 -9 -6 -9 -20z"/>
<path d="M1350 970 c0 -6 7 -10 15 -10 8 0 15 2 15 4 0 2 -7 6 -15 10 -8 3
-15 1 -15 -4z"/>
<path d="M1360 940 c20 -13 33 -13 25 0 -3 6 -14 10 -23 10 -15 0 -15 -2 -2
-10z"/>
<path d="M1483 932 c-10 -7 -10 -12 0 -26 11 -16 13 -15 15 8 2 29 2 29 -15
18z"/>
<path d="M0 901 c0 -25 6 -27 13 -6 4 8 2 17 -3 20 -6 4 -10 -3 -10 -14z"/>
<path d="M883 845 c0 -8 4 -12 9 -9 4 3 8 9 8 15 0 5 -4 9 -8 9 -5 0 -9 -7 -9
-15z"/>
<path d="M897 823 c-12 -12 -7 -19 14 -20 17 -2 18 1 9 13 -14 16 -14 16 -23
7z"/>
<path d="M1310 707 c0 -15 4 -16 20 -7 11 6 31 8 45 4 17 -4 25 -2 25 7 0 10
-14 14 -45 14 -37 0 -45 -3 -45 -18z"/>
<path d="M1289 713 c-8 -46 -4 -60 17 -57 13 1 28 5 33 9 6 3 11 1 11 -4 0 -6
-4 -11 -8 -11 -5 0 -9 -6 -9 -13 0 -20 35 -14 51 9 8 10 18 16 22 11 4 -4 2
-7 -5 -7 -7 0 -9 -4 -6 -10 3 -5 2 -10 -4 -10 -5 0 -9 -8 -8 -18 1 -13 9 -18
33 -18 27 0 31 3 23 17 -7 15 -4 17 24 13 17 -2 26 -1 19 2 -6 3 -10 9 -7 14
3 4 -9 7 -25 6 -17 -1 -31 1 -31 6 -1 4 -3 13 -4 18 -1 6 -3 13 -4 16 0 4 -8
1 -16 -6 -8 -7 -15 -8 -15 -2 0 16 -41 22 -47 7 -4 -11 -9 -12 -23 -3 -10 6
-16 18 -13 25 3 7 2 13 -1 13 -3 0 -7 -3 -7 -7z m131 -93 c0 -5 -5 -10 -11
-10 -5 0 -7 5 -4 10 3 6 8 10 11 10 2 0 4 -4 4 -10z"/>
<path d="M644 627 c-16 -18 -30 -38 -31 -45 -4 -17 16 -15 23 2 6 15 28 16 41
1 4 -4 2 -5 -6 0 -10 6 -12 2 -6 -14 6 -19 3 -21 -30 -16 -26 3 -35 1 -32 -8
2 -7 14 -11 26 -11 15 1 20 -3 17 -13 -3 -8 -1 -11 4 -8 6 3 10 1 10 -4 0 -6
-7 -11 -15 -11 -8 0 -15 6 -15 13 0 8 -7 14 -15 14 -19 0 -19 -5 0 -24 16 -16
11 -38 -7 -27 -7 4 -8 2 -4 -4 8 -13 65 -9 94 7 11 6 22 7 26 4 3 -3 6 2 6 12
0 14 -3 15 -14 6 -10 -9 -19 -7 -36 7 -16 13 -20 21 -12 26 7 4 12 1 12 -8 0
-9 7 -16 15 -16 9 0 12 6 8 16 -5 15 -3 15 20 -1 15 -9 32 -15 39 -12 8 4 6 6
-4 6 -10 1 -18 6 -18 12 0 6 8 8 19 4 25 -7 48 21 35 42 -13 20 -46 26 -56 10
-5 -8 -8 -6 -8 6 0 9 -4 17 -8 17 -13 0 -12 -43 1 -60 10 -13 10 -13 -5 -2 -9
8 -22 11 -28 7 -5 -3 -10 -1 -10 4 0 6 5 11 10 11 20 0 10 20 -17 34 -25 13
-26 15 -9 22 10 4 21 3 25 -3 3 -5 17 -6 31 -2 14 4 19 7 12 8 -8 1 -10 6 -6
14 6 9 4 9 -8 -1 -13 -10 -19 -10 -31 2 -13 13 -18 11 -43 -17z m146 -68 c0
-5 -4 -9 -10 -9 -5 0 -10 6 -10 13 0 9 -3 8 -9 -2 -5 -8 -14 -10 -22 -6 -9 6
-8 10 7 15 21 8 44 2 44 -11z m-125 -79 c-3 -5 -10 -10 -16 -10 -5 0 -9 5 -9
10 0 6 7 10 16 10 8 0 12 -4 9 -10z"/>
<path d="M956 642 c-4 -7 -2 -12 6 -13 7 0 4 -4 -6 -8 -19 -7 -19 -8 2 -13 12
-4 20 -2 16 3 -3 5 0 9 6 9 7 0 10 -6 7 -13 -3 -8 -1 -20 4 -28 7 -11 9 -9 9
8 0 12 5 23 12 25 7 3 9 11 4 24 -6 12 -10 15 -13 7 -6 -16 -30 -17 -35 -1 -3
9 -6 9 -12 0z"/>
<path d="M1041 636 c-9 -10 -8 -15 4 -19 9 -4 19 2 25 13 8 16 8 20 -3 20 -8
0 -20 -6 -26 -14z"/>
<path d="M1191 636 c-9 -10 -9 -16 -1 -21 17 -10 37 12 24 25 -8 8 -15 6 -23
-4z"/>
<path d="M1298 633 c7 -3 16 -2 19 1 4 3 -2 6 -13 5 -11 0 -14 -3 -6 -6z"/>
<path d="M1452 564 c-2 -51 -1 -54 21 -52 16 1 23 8 22 20 -1 20 -15 38 -15
19 0 -7 -4 -9 -10 -6 -12 7 -14 26 -2 24 21 -4 32 3 32 19 0 14 -2 15 -10 2
-8 -13 -10 -13 -10 1 0 9 -6 19 -12 22 -9 3 -14 -11 -16 -49z"/>
<path d="M1015 601 c-3 -7 -3 -11 2 -10 20 3 27 -2 13 -11 -12 -7 -10 -9 8 -7
12 0 22 5 22 9 0 4 5 8 11 8 5 0 7 -5 3 -12 -4 -6 -3 -8 4 -4 6 3 13 2 17 -4
5 -9 -15 -15 -37 -11 -14 2 -8 -20 7 -25 8 -4 13 -9 11 -13 -3 -4 6 -7 19 -7
14 0 26 5 29 12 3 8 -3 10 -17 7 -17 -4 -19 -2 -8 5 8 6 11 17 8 26 -3 8 -2
18 3 21 6 4 10 3 10 -2 0 -4 14 -9 31 -10 27 -2 34 10 8 13 -5 1 -12 3 -16 4
-5 2 -21 4 -38 5 -16 1 -42 5 -56 9 -17 5 -29 3 -34 -3z"/>
<path d="M940 588 c0 -5 9 -12 20 -15 15 -4 18 -9 10 -18 -8 -9 -5 -14 10 -18
25 -7 60 2 60 15 0 6 -7 8 -15 4 -9 -3 -25 4 -37 16 -24 24 -48 32 -48 16z"/>
<path d="M1410 580 c0 -6 7 -10 15 -10 8 0 15 2 15 4 0 2 -7 6 -15 10 -8 3
-15 1 -15 -4z"/>
<path d="M584 566 c-3 -9 -10 -13 -15 -10 -5 3 -9 -2 -9 -10 0 -8 5 -18 10
-21 6 -3 10 -12 10 -18 0 -7 -4 -6 -10 3 -6 10 -10 11 -10 3 0 -7 -5 -13 -11
-13 -6 0 -9 9 -6 20 5 18 3 18 -22 7 -14 -8 -35 -12 -46 -10 -17 2 -16 1 3 -7
12 -5 22 -14 22 -20 0 -5 -10 -10 -22 -9 -19 0 -20 2 -6 7 15 6 14 9 -7 18
-19 9 -25 9 -29 -2 -3 -8 -1 -14 4 -14 6 0 10 -7 10 -17 0 -13 -3 -12 -19 5
-19 22 -37 30 -26 12 3 -5 2 -10 -4 -10 -5 0 -8 -10 -5 -23 2 -16 -1 -24 -11
-24 -18 0 -20 13 -4 23 20 12 -14 23 -35 11 -12 -6 -24 -10 -27 -9 -4 0 -9 -8
-12 -18 -3 -11 -1 -17 4 -14 5 3 12 -2 15 -11 5 -12 9 -13 20 -4 11 9 14 7 14
-10 0 -11 4 -21 9 -21 6 0 8 9 6 20 -2 11 0 18 6 15 5 -4 9 -17 9 -31 0 -22 2
-23 20 -12 11 7 20 16 20 21 0 4 -5 5 -12 1 -6 -4 -8 -3 -5 3 3 5 20 8 36 7
17 -1 28 2 25 7 -3 5 0 9 5 9 6 0 11 -12 11 -27 0 -16 -4 -23 -8 -18 -12 17
-42 17 -48 1 -3 -9 -11 -13 -17 -9 -6 3 -7 1 -3 -6 4 -6 12 -9 17 -6 5 4 9 1
9 -4 0 -6 5 -11 11 -11 6 0 8 9 4 21 -6 19 -5 20 17 8 14 -7 18 -14 10 -17
-18 -6 -15 -18 6 -19 14 -1 17 8 16 61 0 82 21 84 24 2 2 -33 5 -62 7 -65 10
-10 75 -10 75 0 0 6 -4 7 -10 4 -5 -3 -10 -1 -10 4 0 12 35 9 47 -4 5 -4 2 -5
-6 0 -9 5 -12 4 -7 -3 15 -24 23 -10 20 33 -3 33 0 43 9 39 8 -3 12 -18 11
-39 -2 -19 2 -37 9 -41 7 -4 9 -4 5 1 -4 4 0 14 10 22 9 8 12 12 6 9 -14 -7
-17 51 -3 60 5 3 7 9 4 14 -3 4 7 11 22 15 20 5 24 8 13 15 -8 5 -19 6 -24 2
-11 -6 -52 -14 -78 -13 -10 0 -20 -4 -23 -10 -3 -5 1 -6 9 -3 9 3 16 2 16 -3
0 -5 -11 -9 -24 -9 -14 0 -22 4 -20 8 3 5 -6 6 -20 2 -21 -5 -25 -3 -20 9 4
10 15 14 32 11 l27 -4 -25 14 c-14 8 -27 13 -30 12 -3 -2 -13 5 -22 16 -10 10
-14 18 -9 18 6 0 13 -5 16 -11 4 -6 13 -8 21 -5 7 3 17 0 21 -7 5 -7 10 9 14
38 6 53 4 69 -7 41z m-227 -121 c0 -8 -6 -16 -14 -19 -11 -4 -11 -1 -3 14 13
24 17 25 17 5z m130 0 c0 -8 -4 -15 -8 -15 -11 0 -20 16 -12 24 11 11 20 7 20
-9z m-31 -32 c-3 -4 -6 -1 -6 6 0 7 -4 9 -10 6 -11 -7 -14 8 -3 19 4 3 11 -1
16 -9 5 -9 6 -19 3 -22z m217 20 c-7 -2 -19 -2 -25 0 -7 3 -2 5 12 5 14 0 19
-2 13 -5z m-93 -37 c0 -12 -13 -14 -40 -6 -4 1 24 16 38 19 1 1 2 -5 2 -13z
m22 -17 c-12 -9 -22 -25 -23 -36 0 -10 -3 -13 -6 -5 -2 6 -12 12 -20 12 -12 0
-13 3 -3 15 6 8 15 14 18 13 21 -2 31 4 26 17 -5 11 -2 13 11 8 17 -6 16 -8
-3 -24z m28 -9 c0 -5 -4 -10 -10 -10 -5 0 -10 5 -10 10 0 6 5 10 10 10 6 0 10
-4 10 -10z"/>
<path d="M1210 563 c0 -25 55 -40 64 -17 7 19 -11 27 -26 11 -11 -12 -15 -12
-25 2 -7 9 -12 11 -13 4z"/>
<path d="M217 543 c-4 -7 1 -17 12 -22 25 -14 31 -14 31 -1 0 6 -6 10 -14 10
-8 0 -16 5 -18 12 -3 9 -6 9 -11 1z"/>
<path d="M790 518 c0 -9 -6 -19 -12 -21 -10 -4 -10 -6 0 -6 14 -1 28 26 18 36
-3 4 -6 -1 -6 -9z"/>
<path d="M180 512 c0 -5 11 -17 24 -26 16 -10 23 -22 19 -34 -3 -13 2 -21 15
-24 15 -4 18 -1 15 12 -2 9 1 17 9 18 7 1 26 3 41 5 16 1 32 9 36 16 5 7 11
12 15 12 3 -1 13 -1 22 -1 14 0 14 2 0 15 -19 20 -27 19 -19 -2 6 -17 5 -17
-14 0 -20 17 -79 24 -68 8 10 -18 -15 -22 -37 -7 -27 19 -42 21 -32 4 5 -9 2
-9 -9 1 -9 7 -17 9 -17 3z m127 -24 c1 -13 -1 -18 -5 -11 -5 8 -13 9 -22 3 -8
-6 -19 -10 -25 -10 -5 0 4 9 20 19 17 11 30 20 30 20 1 1 2 -9 2 -21z"/>
<path d="M200 470 c0 -5 5 -10 11 -10 5 0 7 5 4 10 -3 6 -8 10 -11 10 -2 0 -4
-4 -4 -10z"/>
<path d="M780 455 c0 -8 2 -15 4 -15 2 0 6 7 10 15 3 8 1 15 -4 15 -6 0 -10
-7 -10 -15z"/>
<path d="M705 420 c-10 -11 -15 -20 -10 -20 4 0 14 8 21 18 13 16 14 16 8 -1
-6 -16 -2 -18 22 -15 16 2 30 -1 31 -7 1 -5 -9 -9 -22 -7 -14 2 -25 -1 -25 -6
0 -5 16 -9 35 -10 31 -1 35 1 35 24 0 26 -31 47 -38 26 -5 -17 -22 -15 -22 3
0 21 -13 19 -35 -5z"/>
<path d="M1473 432 c-18 -11 -27 -59 -12 -67 7 -5 10 -4 6 3 -5 6 0 8 13 5 12
-3 20 0 20 6 0 7 -6 11 -13 9 -7 -2 -13 2 -13 7 0 6 6 9 12 7 8 -1 10 5 7 18
-3 11 -6 20 -7 20 0 0 -6 -4 -13 -8z"/>
<path d="M1267 413 c-10 -9 -9 -33 1 -33 4 0 8 9 8 20 0 23 0 22 -9 13z"/>
<path d="M1158 358 l16 -28 13 25 c12 22 16 23 40 12 20 -9 23 -13 10 -15 -9
-2 -17 -11 -17 -20 0 -10 3 -13 8 -7 8 12 57 14 68 3 4 -4 -2 -11 -12 -15 -10
-3 -22 -11 -26 -17 -4 -6 -12 -12 -18 -12 -5 -1 -13 -2 -16 -3 -3 0 4 -10 17
-21 13 -10 18 -19 12 -20 -7 0 -13 5 -13 11 0 6 -7 9 -15 5 -19 -7 -45 3 -45
17 0 7 4 7 12 -1 7 -7 16 -12 22 -12 5 0 6 3 3 7 -4 3 -2 12 5 20 6 7 7 17 3
21 -4 4 -10 2 -12 -5 -2 -7 -10 -10 -18 -7 -7 3 -16 1 -20 -5 -3 -6 -11 -11
-16 -11 -6 0 -7 5 -4 11 4 6 -2 5 -13 -2 -12 -7 -18 -17 -15 -23 4 -5 0 -7 -9
-4 -8 4 -21 2 -29 -3 -12 -8 -12 -10 1 -8 8 1 24 1 35 0 16 -1 17 -3 6 -10 -8
-5 -21 -7 -30 -3 -9 3 -13 2 -10 -2 10 -10 49 -16 49 -7 0 5 26 7 57 5 43 -3
62 0 77 14 20 16 20 16 7 0 -12 -16 -11 -18 12 -16 15 1 23 7 20 14 -3 9 10
11 51 8 49 -5 56 -3 56 13 0 14 -2 15 -9 4 -7 -11 -9 -11 -14 0 -4 11 -6 11
-6 1 -1 -8 -12 -3 -28 12 -18 17 -31 22 -37 16 -13 -13 -26 -13 -26 2 0 6 3 9
6 5 4 -3 13 0 20 8 16 15 19 29 5 21 -5 -4 -11 -1 -13 4 -2 6 -16 12 -33 14
-17 2 -32 11 -36 22 -5 13 -8 14 -8 4 -1 -9 -4 -11 -9 -4 -4 5 -26 10 -49 10
l-42 0 17 -28z m16 6 c3 -8 2 -12 -4 -9 -6 3 -10 10 -10 16 0 14 7 11 14 -7z
m116 -75 c0 -7 10 -9 24 -5 14 3 28 2 31 -4 3 -5 3 -10 -2 -11 -4 0 -16 -2
-25 -4 -10 -2 -21 1 -24 6 -4 6 -11 6 -19 -1 -10 -9 -13 -7 -10 7 2 10 4 19 4
21 3 8 21 0 21 -9z m-128 -27 c-7 -2 -9 -9 -6 -14 4 -7 2 -8 -4 -4 -19 12 -15
36 5 29 11 -4 13 -8 5 -11z"/>
<path d="M1290 371 c0 -9 4 -10 13 -3 7 5 21 6 32 1 11 -4 14 -8 8 -8 -8 -1
-6 -8 7 -21 11 -11 17 -26 14 -35 -4 -8 -1 -15 5 -15 6 0 11 12 11 28 0 17 3
23 8 14 5 -8 8 0 8 21 l-1 33 -52 -1 c-38 0 -53 -4 -53 -14z m90 -11 c0 -5 -5
-10 -11 -10 -5 0 -7 5 -4 10 3 6 8 10 11 10 2 0 4 -4 4 -10z"/>
<path d="M1408 373 c-6 -23 1 -45 13 -37 5 3 9 0 9 -5 0 -6 8 -11 18 -11 9 0
24 -5 32 -10 11 -8 0 -9 -38 -6 -36 2 -52 0 -49 -8 2 -6 17 -10 33 -9 16 1 23
0 17 -3 -7 -3 -13 -12 -13 -20 0 -9 5 -12 10 -9 6 3 10 1 10 -4 0 -12 -5 -13
-60 -14 l-35 0 33 -4 c17 -2 32 -8 32 -13 0 -5 -7 -7 -15 -4 -8 4 -15 1 -15
-7 0 -7 3 -9 7 -6 10 10 35 -31 27 -45 -4 -7 -3 -8 4 -4 6 4 10 22 8 40 -1 23
3 37 15 44 13 8 19 8 22 -1 4 -9 6 -9 6 1 1 7 6 10 12 7 7 -5 9 13 8 52 -2 43
-6 60 -16 60 -8 0 -12 -7 -8 -16 4 -14 4 -14 -7 0 -7 9 -23 15 -35 13 -17 -3
-20 0 -16 16 3 11 3 20 0 20 -2 0 -7 -8 -9 -17z"/>
<path d="M708 371 c17 -10 17 -22 1 -32 -9 -5 -5 -10 14 -15 16 -3 30 -4 33
-1 6 6 -40 57 -52 57 -5 0 -3 -4 4 -9z"/>
<path d="M745 360 c-3 -5 -1 -10 4 -10 6 0 11 5 11 10 0 6 -2 10 -4 10 -3 0
-8 -4 -11 -10z"/>
<path d="M782 340 c-10 -16 -10 -20 1 -20 7 0 13 9 14 20 1 11 1 20 0 20 -1 0
-8 -9 -15 -20z"/>
<path d="M1193 344 c-3 -8 -1 -20 4 -25 7 -7 11 -2 11 15 0 29 -6 33 -15 10z"/>
<path d="M416 245 c4 -8 8 -15 10 -15 2 0 4 7 4 15 0 8 -4 15 -10 15 -5 0 -7
-7 -4 -15z"/>
<path d="M440 241 c0 -5 11 -8 25 -8 14 0 25 3 25 8 0 5 -11 9 -25 9 -14 0
-25 -4 -25 -9z"/>
<path d="M1025 240 c-3 -5 -1 -10 4 -10 6 0 11 5 11 10 0 6 -2 10 -4 10 -3 0
-8 -4 -11 -10z"/>
<path d="M356 215 c9 -14 19 -24 21 -21 7 7 -16 46 -28 46 -5 0 -2 -11 7 -25z"/>
<path d="M495 220 c-26 -29 -24 -79 4 -102 34 -27 75 -23 100 8 25 32 27 61 5
92 -20 29 -83 31 -109 2z"/>
<path d="M638 233 c27 -4 32 -8 27 -23 -3 -10 -1 -21 5 -25 6 -3 8 -11 5 -16
-4 -5 -2 -9 4 -9 5 0 13 5 16 10 9 15 25 2 25 -19 0 -10 -7 -18 -15 -18 -8 0
-15 4 -15 9 0 5 -4 7 -9 4 -4 -3 -17 4 -27 15 -15 17 -16 24 -6 40 10 16 10
19 -3 19 -11 0 -14 -11 -13 -46 2 -34 -2 -48 -15 -55 -23 -13 -22 -36 2 -49
27 -14 36 -13 22 4 -9 11 -6 12 15 8 24 -4 25 -3 15 16 -14 27 -3 32 34 16 19
-8 23 -13 13 -14 -19 0 -26 -20 -8 -20 6 0 10 -5 10 -11 0 -7 -11 -9 -27 -6
-15 3 -32 -1 -40 -9 -12 -12 -18 -10 -41 11 -31 29 -96 36 -86 10 4 -8 13 -15
21 -15 8 0 11 5 8 10 -3 6 0 10 8 10 7 0 14 -7 14 -15 0 -8 -4 -12 -9 -9 -4 3
-8 0 -8 -6 0 -6 -4 -9 -9 -6 -14 9 -39 -4 -44 -22 -4 -15 -5 -14 -6 1 -1 21
-21 13 -21 -9 0 -11 17 -14 80 -14 63 0 80 3 80 14 0 8 5 18 12 22 8 5 9 2 5
-10 -4 -9 -3 -14 2 -11 5 3 12 1 16 -4 8 -14 313 -13 321 1 4 6 10 5 15 -3 7
-11 9 -11 9 -1 0 9 5 10 18 4 27 -15 182 -16 182 -2 0 7 -7 9 -16 6 -8 -3 -13
-2 -9 3 3 5 -1 11 -7 14 -7 2 1 4 18 3 25 -1 30 -5 26 -20 -4 -13 -1 -17 9
-14 15 5 22 48 7 48 -5 0 -6 5 -3 10 3 6 -1 10 -10 10 -9 0 -14 -4 -11 -8 2
-4 -7 -8 -22 -9 -17 -1 -21 1 -12 5 8 4 17 18 18 32 l4 25 -20 -22 c-11 -13
-26 -23 -34 -23 -8 0 -19 -5 -26 -12 -9 -9 -12 -9 -12 2 0 10 -3 11 -8 3 -7
-12 -25 -16 -55 -14 -15 1 -16 3 -5 15 7 8 15 14 18 14 3 0 21 0 40 2 25 1 30
3 17 9 -17 6 -17 8 2 25 19 17 20 17 30 -3 11 -19 12 -20 30 -3 17 16 18 38 1
27 -18 -11 -18 14 0 48 18 33 18 37 4 37 -10 0 -14 -5 -10 -16 3 -8 2 -12 -4
-9 -6 3 -10 1 -10 -5 0 -6 -4 -8 -10 -5 -5 3 -10 0 -10 -7 0 -8 -3 -9 -8 -3
-14 19 -34 17 -27 -4 4 -12 0 -21 -11 -25 -24 -9 -27 -3 -13 28 7 15 18 25 26
22 7 -3 13 -1 13 4 0 6 -6 10 -12 11 -80 6 -86 5 -81 -7 2 -7 11 -10 19 -7 10
4 12 0 8 -11 -3 -9 -2 -16 4 -16 6 0 8 -8 5 -19 -3 -13 -11 -17 -26 -14 -22 5
-22 5 -2 -10 11 -9 16 -17 11 -17 -6 0 -1 -7 10 -16 10 -8 13 -12 6 -9 -7 4
-21 -2 -31 -14 -14 -16 -20 -18 -31 -8 -10 9 -11 9 -6 0 4 -7 3 -13 -3 -13 -6
0 -8 -8 -4 -17 3 -10 3 -15 -1 -11 -12 10 -14 42 -3 56 6 8 6 12 -1 12 -17 0
-24 -37 -12 -59 9 -18 7 -20 -17 -18 -30 2 -48 18 -33 27 13 8 0 52 -14 47 -6
-3 -9 -11 -8 -18 10 -38 10 -49 1 -54 -8 -5 -14 23 -10 47 2 12 -13 10 -26 -3
-7 -7 -9 -3 -6 15 3 14 10 26 15 26 5 0 6 -5 2 -12 -4 -7 -3 -8 4 -4 20 12 13
26 -14 26 -14 0 -23 -4 -19 -10 3 -5 1 -10 -5 -10 -7 0 -10 -7 -6 -17 6 -17 5
-17 -8 0 -15 19 -36 23 -36 6 0 -5 4 -7 10 -4 6 4 7 -1 3 -11 -6 -16 -8 -15
-16 4 -9 21 -28 31 -26 15 4 -23 -3 -33 -23 -32 -22 0 -22 1 -3 9 l20 9 -20 0
c-17 1 -15 4 9 16 15 8 33 12 39 8 6 -4 8 0 4 10 -8 22 12 22 30 0 14 -17 14
-17 9 -1 -3 10 -2 17 2 17 21 -3 30 3 27 19 -2 9 -4 20 -4 24 -1 5 -6 7 -12 5
-6 -1 -14 4 -17 12 -3 10 1 12 17 8 17 -4 20 -3 12 7 -6 7 -8 16 -4 19 3 4 2
7 -3 7 -5 0 -18 -13 -27 -30 -23 -38 -34 -38 -31 -2 2 27 -1 29 -37 29 -21 0
-36 -4 -33 -9 4 -5 17 -7 30 -4 23 6 29 -1 25 -31 -2 -17 18 -26 33 -14 12 10
36 -2 36 -18 0 -9 -83 -5 -104 4 -18 8 -18 9 3 17 34 12 16 27 -29 24 -23 -2
-43 1 -46 6 -3 4 -1 8 5 8 5 0 9 9 8 20 -1 17 -8 20 -42 18 -37 -1 -38 -1 -7
-5z m528 -76 c4 -4 -7 -12 -24 -18 -18 -6 -29 -16 -25 -22 3 -6 1 -7 -5 -3 -7
4 -12 1 -12 -8 0 -9 -4 -16 -10 -16 -5 0 -10 5 -10 11 0 14 25 39 39 39 6 0
11 6 11 14 0 14 23 16 36 3z m-508 -62 c-3 -3 -13 -2 -22 1 -14 5 -15 9 -4 15
13 8 36 -6 26 -16z m102 5 c0 -5 -5 -10 -11 -10 -5 0 -7 5 -4 10 3 6 8 10 11
10 2 0 4 -4 4 -10z m407 -46 c-3 -3 -12 -4 -19 -1 -8 3 -5 6 6 6 11 1 17 -2
13 -5z m-439 -18 c7 -4 19 -5 27 -2 8 3 17 1 20 -4 4 -7 13 -6 25 0 26 14 37
13 22 -2 -15 -15 -92 -18 -92 -4 0 6 -5 5 -12 -2 -8 -8 -15 -9 -25 -1 -29 25
0 37 35 15z m-100 -16 c3 -13 2 -12 -7 0 -8 11 -11 11 -11 2 0 -10 -5 -10 -20
-2 -12 7 -20 7 -20 1 0 -11 -39 -6 -49 5 -3 4 1 5 10 2 9 -4 21 -3 28 1 20 13
64 6 69 -9z m262 6 c0 -6 -13 -11 -29 -11 -16 -1 -27 3 -25 7 3 5 10 6 15 3 5
-4 9 -2 9 3 0 5 7 9 15 9 8 0 15 -5 15 -11z m281 -3 c8 -8 7 -11 -7 -10 -11 1
-22 6 -25 11 -4 5 -13 5 -20 0 -20 -12 -68 -12 -78 0 -13 15 114 15 130 -1z"/>
<path d="M708 233 c7 -3 16 -2 19 1 4 3 -2 6 -13 5 -11 0 -14 -3 -6 -6z"/>
<path d="M782 233 c27 -3 35 -8 31 -19 -3 -8 0 -14 6 -14 6 0 11 6 11 14 0 9
13 16 33 18 17 2 -2 4 -43 4 -41 0 -58 -1 -38 -3z"/>
<path d="M896 218 c-22 -31 -20 -60 5 -92 39 -50 122 -22 122 42 0 45 -28 72
-74 72 -28 0 -42 -6 -53 -22z"/>
<path d="M1058 233 c7 -3 16 -2 19 1 4 3 -2 6 -13 5 -11 0 -14 -3 -6 -6z"/>
<path d="M331 204 c0 -11 3 -14 6 -6 3 7 2 16 -1 19 -3 4 -6 -2 -5 -13z"/>
<path d="M1145 210 c-3 -5 1 -10 10 -10 9 0 13 5 10 10 -3 6 -8 10 -10 10 -2
0 -7 -4 -10 -10z"/>
<path d="M1231 203 c11 -12 6 -17 -13 -14 -5 0 -8 -6 -8 -15 0 -9 -5 -12 -12
-8 -7 4 -8 3 -4 -4 4 -7 14 -12 23 -12 9 0 13 3 10 7 -4 3 -2 12 4 19 8 10 16
11 31 3 11 -6 26 -8 34 -5 8 3 14 1 14 -3 0 -12 23 -9 30 4 3 5 -14 9 -37 10
-40 1 -76 15 -40 15 10 0 17 4 17 9 0 5 -13 9 -30 9 -24 -1 -28 -4 -19 -15z"/>
<path d="M1290 203 c0 -6 9 -9 20 -6 30 8 33 21 5 19 -14 0 -25 -6 -25 -13z"/>
<path d="M1358 213 c7 -3 16 -2 19 1 4 3 -2 6 -13 5 -11 0 -14 -3 -6 -6z"/>
<path d="M1452 181 c-2 -44 -20 -55 -44 -28 -19 21 -19 21 -15 2 4 -18 -1 -20
-47 -21 -28 0 -54 4 -57 9 -3 4 -12 9 -20 10 -8 2 -20 7 -28 11 -9 6 -12 5 -7
-2 3 -6 2 -13 -3 -17 -14 -8 -9 -45 7 -45 7 0 10 5 6 12 -4 7 -3 8 4 4 19 -11
14 -24 -10 -30 -13 -2 -6 -4 14 -2 20 1 36 -2 35 -7 -1 -5 4 -12 12 -15 8 -3
11 0 7 7 -4 6 -1 11 7 11 7 0 14 -7 14 -15 0 -8 -4 -12 -9 -9 -4 3 -8 0 -8 -6
0 -6 -4 -8 -10 -5 -5 3 -10 -1 -10 -10 0 -12 4 -14 19 -6 10 6 21 7 25 4 3 -3
6 3 6 14 0 20 27 39 38 28 3 -3 0 -5 -7 -5 -7 0 -10 -4 -6 -9 3 -5 1 -13 -5
-16 -8 -5 -7 -11 1 -21 12 -15 34 -20 25 -5 -3 5 1 12 10 15 11 4 15 2 11 -7
-3 -8 3 -14 15 -14 14 -1 18 3 14 13 -3 9 -1 12 4 9 6 -3 10 -2 10 4 0 6 -9
15 -20 21 -14 7 -20 7 -20 0 0 -5 -8 -10 -17 -9 -11 0 -13 3 -5 6 6 2 10 9 6
14 -10 17 39 9 53 -9 14 -16 14 -16 9 0 -3 10 -2 17 2 17 29 -5 38 4 40 36 2
20 -2 35 -8 35 -6 0 -8 -4 -5 -10 3 -6 -1 -7 -9 -4 -24 9 -20 55 4 61 27 7 25
19 -3 19 -20 0 -24 -5 -25 -35z m-2 -70 c-6 -12 -16 -21 -23 -21 -7 0 -6 4 3
10 8 5 11 10 7 10 -4 0 -2 6 5 14 18 19 22 12 8 -13z m-116 -2 c-2 -4 2 -10 8
-12 7 -3 1 -5 -14 -4 -31 2 -39 23 -9 23 11 0 18 -3 15 -7z m79 -6 c-6 -16
-19 -17 -29 -2 -4 8 -9 7 -15 -2 -7 -11 -9 -10 -9 4 0 13 7 17 29 15 19 -1 27
-7 24 -15z m67 2 c0 -8 -4 -15 -10 -15 -5 0 -7 7 -4 15 4 8 8 15 10 15 2 0 4
-7 4 -15z"/>
<path d="M1360 190 c20 -13 33 -13 25 0 -3 6 -14 10 -23 10 -15 0 -15 -2 -2
-10z"/>
<path d="M1481 181 c-10 -6 -10 -10 -1 -16 13 -8 24 -1 19 14 -3 6 -10 7 -18
2z"/>
<path d="M0 149 c0 -11 4 -18 10 -14 5 3 7 12 3 20 -7 21 -13 19 -13 -6z"/>
<path d="M1350 149 c0 -5 5 -7 10 -4 6 3 10 8 10 11 0 2 -4 4 -10 4 -5 0 -10
-5 -10 -11z"/>
<path d="M437 123 c-13 -12 -7 -43 8 -43 10 0 14 9 13 25 -2 25 -9 31 -21 18z"/>
<path d="M1022 94 c-7 -8 -8 -14 -3 -14 10 0 25 19 20 25 -2 1 -10 -3 -17 -11z"/>
<path d="M1150 90 c0 -5 5 -10 11 -10 5 0 7 5 4 10 -3 6 -8 10 -11 10 -2 0 -4
-4 -4 -10z"/>
<path d="M945 80 c3 -5 10 -10 16 -10 5 0 9 5 9 10 0 6 -7 10 -16 10 -8 0 -12
-4 -9 -10z"/>
<path d="M1267 49 c4 -13 8 -18 11 -10 2 7 -1 18 -6 23 -8 8 -9 4 -5 -13z"/>
<path d="M1465 50 c-3 -11 -3 -25 1 -31 4 -8 3 -9 -4 -5 -7 4 -12 2 -12 -3 0
-6 11 -11 25 -11 14 0 25 5 25 11 0 5 -4 7 -10 4 -5 -3 -10 -2 -10 4 0 5 6 12
13 14 9 4 9 8 -2 15 -11 8 -11 10 0 15 10 4 9 6 -3 6 -9 1 -19 -8 -23 -19z"/>
<path d="M950 34 c0 -8 5 -12 10 -9 6 4 8 11 5 16 -9 14 -15 11 -15 -7z"/>
<path d="M1320 22 c0 -6 -9 -9 -20 -7 -11 2 -22 0 -24 -4 -3 -4 15 -8 40 -10
29 -1 44 2 44 10 0 7 -3 9 -7 6 -3 -4 -12 -2 -20 4 -9 8 -13 8 -13 1z"/>
</g>
</svg>
