<svg xmlns="http://www.w3.org/2000/svg" version="1.1" xmlns:xlink="http://www.w3.org/1999/xlink" xmlns:svgjs="http://svgjs.dev/svgjs" width="1000" height="126" viewBox="0 0 1000 126"><g transform="matrix(1,0,0,1,-0.6060606060606233,0.14889104058487135)"><svg viewBox="0 0 396 50" data-background-color="#ffffff" preserveAspectRatio="xMidYMid meet" height="126" width="1000" xmlns="http://www.w3.org/2000/svg" xmlns:xlink="http://www.w3.org/1999/xlink"><g id="tight-bounds" transform="matrix(1,0,0,1,0.2400000000000091,-0.05908374626383761)"><svg viewBox="0 0 395.52 50.118167492527654" height="50.118167492527654" width="395.52"><g><svg viewBox="0 0 464.4217323962593 58.84902450294696" height="50.118167492527654" width="395.52"><g transform="matrix(1,0,0,1,0,8.133258813359532)"><svg viewBox="0 0 395.52 42.582506876227896" height="42.582506876227896" width="395.52"><g id="textblocktransform"><svg viewBox="0 0 395.52 42.582506876227896" height="42.582506876227896" width="395.52" id="textblock"><g><svg viewBox="0 0 395.52 42.582506876227896" height="42.582506876227896" width="395.52"><g transform="matrix(1,0,0,1,0,0)"><svg width="395.52" viewBox="-0.1 -33.45 310.65000000000003 33.45" height="42.582506876227896" data-palette-color="#212325"><path d="M22.85-28.66L22.85-31.25 8.74-31.25 8.74-28.66 14.5-28.66 14.5-11.06 17.11-11.06 17.11-28.66 22.85-28.66ZM10.69-33.45L18.21-33.45Q20.68-33.45 22.68-32.71 24.68-31.98 26.09-30.71 27.49-29.44 28.25-27.75 29-26.05 29-24.15L29-24.15 29-9.3Q29-7.4 28.25-5.7 27.49-4 26.09-2.73 24.68-1.46 22.68-0.73 20.68 0 18.21 0L18.21 0 10.69 0Q8.23 0 6.23-0.73 4.22-1.46 2.82-2.73 1.42-4 0.66-5.7-0.1-7.4-0.1-9.3L-0.1-9.3-0.1-24.15Q-0.1-26.05 0.66-27.75 1.42-29.44 2.82-30.71 4.22-31.98 6.23-32.71 8.23-33.45 10.69-33.45L10.69-33.45ZM39.6-33.45L47.12-33.45Q49.58-33.45 51.58-32.71 53.59-31.98 54.99-30.71 56.39-29.44 57.15-27.75 57.91-26.05 57.91-24.15L57.91-24.15 57.91-9.3Q57.91-7.4 57.15-5.7 56.39-4 54.99-2.73 53.59-1.46 51.58-0.73 49.58 0 47.12 0L47.12 0 39.6 0Q37.13 0 35.13-0.73 33.13-1.46 31.72-2.73 30.32-4 29.56-5.7 28.81-7.4 28.81-9.3L28.81-9.3 28.81-24.15Q28.81-26.05 29.56-27.75 30.32-29.44 31.72-30.71 33.13-31.98 35.13-32.71 37.13-33.45 39.6-33.45L39.6-33.45ZM52-14.99L52-31.25 49.41-31.25 49.41-15.26Q49.36-14.94 49.25-14.58 49.14-14.21 49.05-13.89L49.05-13.89 47.46-13.65 41.21-13.65 39.6-13.89 39.26-15.36 39.26-31.25 36.72-31.25 36.72-14.99 37.01-12.89 38.6-11.35 41.06-11.06 47.6-11.06 50.1-11.35 51.66-12.89 52-14.99ZM80.66-28.66L80.66-31.25 66.55-31.25 66.55-28.66 72.31-28.66 72.31-11.06 74.92-11.06 74.92-28.66 80.66-28.66ZM68.5-33.45L76.02-33.45Q78.49-33.45 80.49-32.71 82.49-31.98 83.89-30.71 85.3-29.44 86.05-27.75 86.81-26.05 86.81-24.15L86.81-24.15 86.81-9.3Q86.81-7.4 86.05-5.7 85.3-4 83.89-2.73 82.49-1.46 80.49-0.73 78.49 0 76.02 0L76.02 0 68.5 0Q66.04 0 64.03-0.73 62.03-1.46 60.63-2.73 59.22-4 58.47-5.7 57.71-7.4 57.71-9.3L57.71-9.3 57.71-24.15Q57.71-26.05 58.47-27.75 59.22-29.44 60.63-30.71 62.03-31.98 64.03-32.71 66.04-33.45 68.5-33.45L68.5-33.45ZM97.4-33.45L104.92-33.45Q107.39-33.45 109.39-32.71 111.39-31.98 112.8-30.71 114.2-29.44 114.96-27.75 115.72-26.05 115.72-24.15L115.72-24.15 115.72-9.3Q115.72-7.4 114.96-5.7 114.2-4 112.8-2.73 111.39-1.46 109.39-0.73 107.39 0 104.92 0L104.92 0 97.4 0Q94.94 0 92.94-0.73 90.93-1.46 89.53-2.73 88.13-4 87.37-5.7 86.61-7.4 86.61-9.3L86.61-9.3 86.61-24.15Q86.61-26.05 87.37-27.75 88.13-29.44 89.53-30.71 90.93-31.98 92.94-32.71 94.94-33.45 97.4-33.45L97.4-33.45ZM109.95-14.99L109.95-27.29 109.61-29.35 108.07-30.91 105.56-31.25 99.02-31.25 96.53-30.91 94.96-29.35 94.67-27.29 94.67-14.99 94.96-12.89 96.57-11.35 99.02-11.06 105.56-11.06 108.07-11.35 109.61-12.89 109.95-14.99ZM107.37-15.26L107.02-13.89 105.41-13.65 99.16-13.65 97.58-13.89 97.21-15.36 97.21-27.05 97.45-28.39 99.16-28.66 105.41-28.66 107.12-28.39 107.37-26.95 107.37-15.26ZM126.31-33.45L133.83-33.45Q136.29-33.45 138.3-32.71 140.3-31.98 141.7-30.71 143.11-29.44 143.86-27.75 144.62-26.05 144.62-24.15L144.62-24.15 144.62-9.3Q144.62-7.4 143.86-5.7 143.11-4 141.7-2.73 140.3-1.46 138.3-0.73 136.29 0 133.83 0L133.83 0 126.31 0Q123.84 0 121.84-0.73 119.84-1.46 118.43-2.73 117.03-4 116.27-5.7 115.52-7.4 115.52-9.3L115.52-9.3 115.52-24.15Q115.52-26.05 116.27-27.75 117.03-29.44 118.43-30.71 119.84-31.98 121.84-32.71 123.84-33.45 126.31-33.45L126.31-33.45ZM134.71-18.41L135.07-17.09 135.07-11.06 137.66-11.06 137.66-17.36 136.81-19.6 134.02-20.61 136.71-21.9 137.47-24.1 137.47-26.81 137.17-28.86 135.56-30.91 133.12-31.25 124.01-31.25 124.01-11.06 126.63-11.06 126.63-19.19 132.97-19.19 134.71-18.41ZM126.63-28.66L132.97-28.66 134.71-27.91 134.88-26.49 134.88-23.9 134.51-22.56 132.97-21.8 126.63-21.8 126.63-28.66ZM150.62-22.41L159.83-22.41 159.83-25.05 150.62-25.05 150.62-22.41ZM155.21 0L155.21 0Q152.75 0 150.74-0.73 148.74-1.46 147.34-2.73 145.93-4 145.18-5.7 144.42-7.4 144.42-9.3L144.42-9.3 144.42-24.15Q144.42-26.05 145.18-27.75 145.93-29.44 147.34-30.71 148.74-31.98 150.74-32.71 152.75-33.45 155.21-33.45L155.21-33.45Q157.7-33.45 159.69-32.71 161.68-31.98 163.1-30.71 164.51-29.44 165.27-27.75 166.03-26.05 166.03-24.15L166.03-24.15 166.03-9.3Q166.03-7.4 165.27-5.7 164.51-4 163.1-2.73 161.68-1.46 159.69-0.73 157.7 0 155.21 0ZM176.62-33.45L184.14-33.45Q186.61-33.45 188.61-32.71 190.61-31.98 192.01-30.71 193.42-29.44 194.17-27.75 194.93-26.05 194.93-24.15L194.93-24.15 194.93-9.3Q194.93-7.4 194.17-5.7 193.42-4 192.01-2.73 190.61-1.46 188.61-0.73 186.61 0 184.14 0L184.14 0 176.62 0Q174.15 0 172.15-0.73 170.15-1.46 168.75-2.73 167.34-4 166.59-5.7 165.83-7.4 165.83-9.3L165.83-9.3 165.83-24.15Q165.83-26.05 166.59-27.75 167.34-29.44 168.75-30.71 170.15-31.98 172.15-32.71 174.15-33.45 176.62-33.45L176.62-33.45ZM188.73-14.99L188.73-18.7 188.39-20.8 186.83-22.34 184.29-22.61 178.82-22.61 177.33-22.9Q177.21-23.32 177.16-23.65 177.11-23.97 176.99-24.34L176.99-24.34 176.99-26.9 177.33-28.34 178.94-28.66 185.14-28.66 187.44-28.2 188.02-30.86 185.19-31.25 178.77-31.25 176.33-30.91 174.74-29.35 174.42-27.29 174.42-23.95 174.74-21.9 176.33-20.36 178.77-20.04 184.29-20.04 185.78-19.8Q185.85-19.43 185.95-19.12 186.04-18.8 186.12-18.46L186.12-18.46 186.12-15.26Q186.07-14.94 185.96-14.58 185.85-14.21 185.78-13.89L185.78-13.89 184.19-13.65 178.13-13.65 175.74-14.04 175.13-11.4 177.99-11.06 184.34-11.06 186.83-11.35 188.39-12.89 188.73-14.99ZM218.12-11.06L218.12-31.25 215.58-31.25 215.58-22.71 205.43-22.71 205.43-31.25 202.84-31.25 202.84-11.06 205.43-11.06 205.43-20.14 215.58-20.14 215.58-11.06 218.12-11.06ZM205.52-33.45L213.04-33.45Q215.51-33.45 217.51-32.71 219.51-31.98 220.92-30.71 222.32-29.44 223.08-27.75 223.84-26.05 223.84-24.15L223.84-24.15 223.84-9.3Q223.84-7.4 223.08-5.7 222.32-4 220.92-2.73 219.51-1.46 217.51-0.73 215.51 0 213.04 0L213.04 0 205.52 0Q203.06 0 201.06-0.73 199.05-1.46 197.65-2.73 196.25-4 195.49-5.7 194.73-7.4 194.73-9.3L194.73-9.3 194.73-24.15Q194.73-26.05 195.49-27.75 196.25-29.44 197.65-30.71 199.05-31.98 201.06-32.71 203.06-33.45 205.52-33.45L205.52-33.45ZM245.83-11.06L245.83-13.65 236.09-13.65 236.09-19.85 244.24-19.85 244.24-22.41 236.09-22.41 236.09-28.66 245.49-28.66 245.49-31.25 233.55-31.25 233.55-11.06 245.83-11.06ZM234.43-33.45L241.95-33.45Q244.41-33.45 246.42-32.71 248.42-31.98 249.82-30.71 251.23-29.44 251.98-27.75 252.74-26.05 252.74-24.15L252.74-24.15 252.74-9.3Q252.74-7.4 251.98-5.7 251.23-4 249.82-2.73 248.42-1.46 246.42-0.73 244.41 0 241.95 0L241.95 0 234.43 0Q231.96 0 229.96-0.73 227.96-1.46 226.55-2.73 225.15-4 224.39-5.7 223.64-7.4 223.64-9.3L223.64-9.3 223.64-24.15Q223.64-26.05 224.39-27.75 225.15-29.44 226.55-30.71 227.96-31.98 229.96-32.71 231.96-33.45 234.43-33.45L234.43-33.45ZM274.73-11.06L274.73-13.65 264.99-13.65 264.99-19.85 273.15-19.85 273.15-22.41 264.99-22.41 264.99-28.66 274.39-28.66 274.39-31.25 262.45-31.25 262.45-11.06 274.73-11.06ZM263.33-33.45L270.85-33.45Q273.32-33.45 275.32-32.71 277.32-31.98 278.73-30.71 280.13-29.44 280.89-27.75 281.64-26.05 281.64-24.15L281.64-24.15 281.64-9.3Q281.64-7.4 280.89-5.7 280.13-4 278.73-2.73 277.32-1.46 275.32-0.73 273.32 0 270.85 0L270.85 0 263.33 0Q260.87 0 258.86-0.73 256.86-1.46 255.46-2.73 254.05-4 253.3-5.7 252.54-7.4 252.54-9.3L252.54-9.3 252.54-24.15Q252.54-26.05 253.3-27.75 254.05-29.44 255.46-30.71 256.86-31.98 258.86-32.71 260.87-33.45 263.33-33.45L263.33-33.45ZM304.39-28.66L304.39-31.25 290.28-31.25 290.28-28.66 296.04-28.66 296.04-11.06 298.66-11.06 298.66-28.66 304.39-28.66ZM292.24-33.45L299.76-33.45Q302.22-33.45 304.22-32.71 306.23-31.98 307.63-30.71 309.03-29.44 309.79-27.75 310.55-26.05 310.55-24.15L310.55-24.15 310.55-9.3Q310.55-7.4 309.79-5.7 309.03-4 307.63-2.73 306.23-1.46 304.22-0.73 302.22 0 299.76 0L299.76 0 292.24 0Q289.77 0 287.77-0.73 285.77-1.46 284.36-2.73 282.96-4 282.2-5.7 281.44-7.4 281.44-9.3L281.44-9.3 281.44-24.15Q281.44-26.05 282.2-27.75 282.96-29.44 284.36-30.71 285.77-31.98 287.77-32.71 289.77-33.45 292.24-33.45L292.24-33.45Z" opacity="1" transform="matrix(1,0,0,1,0,0)" fill="#212325" class="wordmark-text-0" data-fill-palette-color="primary" id="text-0"></path></svg></g></svg></g></svg></g></svg></g><g transform="matrix(1,0,0,1,405.5727078933124,0)"><svg viewBox="0 0 58.84902450294696 58.84902450294696" height="58.84902450294696" width="58.84902450294696"><g data-palette-color="#ffc604"><rect width="16.085400030805502" height="58.84902450294696" fill="#ffc604" stroke="transparent" data-fill-palette-color="accent" x="0" fill-opacity="1"></rect><rect width="16.085400030805502" height="58.84902450294696" fill="#ffc604" stroke="transparent" data-fill-palette-color="accent" x="19.61634150098232" fill-opacity="0.75"></rect><rect width="16.085400030805502" height="58.84902450294696" fill="#ffc604" stroke="transparent" data-fill-palette-color="accent" x="39.23268300196464" fill-opacity="0.5"></rect></g></svg></g></svg></g><defs></defs></svg><rect width="395.52" height="50.118167492527654" fill="none" stroke="none" visibility="hidden"></rect></g></svg></g></svg>