<svg xmlns="http://www.w3.org/2000/svg" version="1.1" xmlns:xlink="http://www.w3.org/1999/xlink" xmlns:svgjs="http://svgjs.dev/svgjs" width="1000" height="148" viewBox="0 0 1000 148"><g transform="matrix(1,0,0,1,-0.6059537319724768,-0.33905997777165453)"><svg viewBox="0 0 396 59" data-background-color="#ffffff" preserveAspectRatio="xMidYMid meet" height="148" width="1000" xmlns="http://www.w3.org/2000/svg" xmlns:xlink="http://www.w3.org/1999/xlink"><g id="tight-bounds" transform="matrix(1,0,0,1,0.2400699762694103,0.1351658019495119)"><svg viewBox="0 0 395.52 58.729668396101" height="58.729668396101" width="395.52"><g><svg viewBox="0 0 395.52000000000004 58.729668396101005" height="58.729668396101" width="395.52"><g><svg viewBox="0 0 395.52000000000004 58.729668396101005" height="58.729668396101005" width="395.52000000000004"><g id="textblocktransform"><svg viewBox="0 0 395.52000000000004 58.729668396101005" height="58.729668396101005" width="395.52000000000004" id="textblock"><g><svg viewBox="0 0 395.52000000000004 36.84772491003599" height="36.84772491003599" width="395.52000000000004"><g transform="matrix(1,0,0,1,0,0)"><svg width="395.52000000000004" viewBox="2.45 -34.6 375.13 34.95" height="36.84772491003599" data-palette-color="#ffa458"><path d="M24.6-25.6L24.6-7.5Q24.6-4.65 23.9-2.98 23.2-1.3 21.98-0.65 20.75 0 18.75 0L18.75 0Q15.8 0 14.48-1.58 13.15-3.15 13.1-7.15L13.1-7.15 13-25.6 8.75-25.6Q5.6-25.6 4.03-26.6 2.45-27.6 2.45-30.15L2.45-30.15Q2.45-31.7 3.08-32.6 3.7-33.5 4.95-33.88 6.2-34.25 8.3-34.25L8.3-34.25 29.7-34.25Q32.5-34.25 33.75-33.25 35-32.25 35-29.8L35-29.8Q35-28.15 34.27-27.23 33.55-26.3 32.35-25.95 31.15-25.6 29.25-25.6L29.25-25.6 24.6-25.6ZM69.55-28.25L69.55-28.25 69.55-13.35Q69.55-6.05 66.02-2.88 62.5 0.3 54.15 0.3L54.15 0.3Q46.2 0.3 42.47-3.1 38.75-6.5 38.75-13.35L38.75-13.35 38.75-28.25Q38.75-30.9 40.32-32.58 41.9-34.25 44.3-34.25L44.3-34.25Q47.25-34.25 48.77-33.15 50.3-32.05 50.3-28.7L50.3-28.7 50.3-12.4Q50.35-10.8 50.82-9.85 51.3-8.9 52.1-8.53 52.9-8.15 54.15-8.15 55.4-8.15 56.2-8.45 57-8.75 57.37-9.4 57.75-10.05 57.87-10.7 58-11.35 58-12.4L58-12.4 58-28.75Q58-30.45 58.42-31.6 58.85-32.75 59.72-33.3 60.6-33.85 61.52-34.05 62.45-34.25 63.75-34.25L63.75-34.25Q66.65-34.25 68.1-32.85 69.55-31.45 69.55-28.25ZM96.3-25.6L96.3-7.5Q96.3-4.65 95.6-2.98 94.9-1.3 93.67-0.65 92.45 0 90.45 0L90.45 0Q87.5 0 86.17-1.58 84.85-3.15 84.8-7.15L84.8-7.15 84.7-25.6 80.45-25.6Q77.3-25.6 75.72-26.6 74.15-27.6 74.15-30.15L74.15-30.15Q74.15-31.7 74.77-32.6 75.4-33.5 76.65-33.88 77.9-34.25 80-34.25L80-34.25 101.4-34.25Q104.2-34.25 105.45-33.25 106.7-32.25 106.7-29.8L106.7-29.8Q106.7-28.15 105.97-27.23 105.25-26.3 104.05-25.95 102.85-25.6 100.95-25.6L100.95-25.6 96.3-25.6ZM125.89-7L125.89-7Q127.59-7 128.82-8.5 130.04-10 130.57-12.2 131.09-14.4 131.09-16.9L131.09-16.9Q131.09-19.45 130.54-21.73 129.99-24 128.77-25.6 127.54-27.2 125.89-27.2L125.89-27.2Q124.29-27.2 123.09-25.6 121.89-24 121.29-21.7 120.69-19.4 120.69-16.9L120.69-16.9Q120.69-14.4 121.27-12.2 121.84-10 123.07-8.5 124.29-7 125.89-7ZM134.74-1.68Q130.79 0.3 125.87 0.3 120.94 0.3 117.02-1.68 113.09-3.65 110.74-7.6 108.39-11.55 108.39-16.9L108.39-16.9Q108.39-25 113.27-29.78 118.14-34.55 125.89-34.55 133.64-34.55 138.54-29.78 143.44-25 143.44-16.9L143.44-16.9Q143.44-11.55 141.07-7.6 138.69-3.65 134.74-1.68ZM168.24-24.3L168.24-24.3Q168.24-26.7 166.49-27.6 164.74-28.5 160.59-28.5L160.59-28.5 160.59-19.85Q164.49-19.85 166.37-20.83 168.24-21.8 168.24-24.3ZM160.59-12.35L160.59-7.5Q160.59 0 154.74 0L154.74 0Q151.79 0 150.42-1.58 149.04-3.15 149.04-7.15L149.04-7.15 149.04-28.25Q149.04-31.15 150.62-32.68 152.19-34.2 154.74-34.2L154.74-34.2 165.24-34.2Q171.39-34.2 175.19-31.33 178.99-28.45 178.99-23.95L178.99-23.95Q178.99-20.55 177.57-18.63 176.14-16.7 172.99-15.8L172.99-15.8Q175.39-15.65 177.44-13.48 179.49-11.3 179.49-8.05L179.49-8.05Q179.49-4.75 178.87-2.98 178.24-1.2 177.09-0.6 175.94 0 173.84 0L173.84 0Q170.89 0 169.52-1.23 168.14-2.45 168.14-4.95L168.14-4.95Q168.14-8.05 167.54-9.73 166.94-11.4 165.99-11.9 165.04-12.4 163.34-12.4L163.34-12.4 160.59-12.35ZM188.19-17.3L195.14-17.3Q196.94-17.3 197.99-16.93 199.04-16.55 199.49-15.7 199.94-14.85 199.94-13.4L199.94-13.4Q199.94-11.55 198.69-10.83 197.44-10.1 194.69-10.1L194.69-10.1 187.84-10.1Q183.79-10.1 183.79-13.6L183.79-13.6Q183.79-17.3 188.19-17.3L188.19-17.3ZM218.79-34.6L218.79-34.6Q224.74-34.6 228.94-32.15 233.14-29.7 233.14-26.95L233.14-26.95Q233.14-26.2 232.81-25.68 232.49-25.15 232.01-24.93 231.54-24.7 230.99-24.7L230.99-24.7Q230.09-24.7 228.29-25.63 226.49-26.55 224.29-27.48 222.09-28.4 220.24-28.4L220.24-28.4Q217.29-28.4 217.29-26L217.29-26Q217.29-25.25 217.76-24.58 218.24-23.9 219.29-23.18 220.34-22.45 221.34-21.9 222.34-21.35 224.09-20.43 225.84-19.5 227.04-18.8L227.04-18.8Q230.89-16.6 232.44-14.6 233.99-12.6 233.99-10L233.99-10Q233.99 0.35 220.04 0.35L220.04 0.35Q217.29 0.35 214.71-0.2 212.14-0.75 210.21-1.65 208.29-2.55 206.81-3.65 205.34-4.75 204.59-5.9 203.84-7.05 203.84-8.05L203.84-8.05Q203.84-9.15 204.56-9.93 205.29-10.7 206.69-10.7L206.69-10.7Q207.74-10.7 211.74-9.38 215.74-8.05 218.19-8.05L218.19-8.05Q220.44-8.05 220.44-9.6L220.44-9.6Q220.44-10.05 220.26-10.43 220.09-10.8 219.66-11.18 219.24-11.55 218.71-11.88 218.19-12.2 217.26-12.7 216.34-13.2 215.41-13.7 214.49-14.2 212.99-15 211.49-15.8 210.09-16.6L210.09-16.6Q208.24-17.65 206.91-19.2 205.59-20.75 204.99-22.28 204.39-23.8 204.39-25.1L204.39-25.1Q204.39-29.3 208.14-31.95 211.89-34.6 218.79-34.6ZM272.53-28.7L272.53-7.5Q272.53-3.45 271.08-1.73 269.63 0 266.68 0L266.68 0Q263.78 0 262.43-1.58 261.08-3.15 261.08-7.15L261.08-7.15 261.03-12.8 250.83-12.8 250.83-7.5Q250.83-3.4 249.43-1.7 248.03 0 244.98 0L244.98 0Q242.08 0 240.73-1.58 239.38-3.15 239.38-7.15L239.38-7.15 239.23-28.25Q239.23-31.35 240.81-32.8 242.38-34.25 244.98-34.25L244.98-34.25Q247.98-34.25 249.41-33.15 250.83-32.05 250.83-28.7L250.83-28.7 250.83-20.3 260.98-20.3 260.98-28.25Q260.98-30.35 261.76-31.73 262.53-33.1 263.76-33.68 264.98-34.25 266.68-34.25L266.68-34.25Q269.58-34.25 271.06-33.15 272.53-32.05 272.53-28.7L272.53-28.7ZM290.33-20.3L298.93-20.3Q301.58-20.3 302.66-19.45 303.73-18.6 303.73-16.55L303.73-16.55Q303.73-14.85 302.46-14.13 301.18-13.4 298.48-13.4L298.48-13.4 290.38-13.4 290.38-8.1 301.23-8.05Q304.03-8.05 305.26-7.23 306.48-6.4 306.48-4.3L306.48-4.3Q306.48-1.9 305.06-0.95 303.63 0 300.73 0L300.73 0 284.53 0Q281.58 0 280.21-1.58 278.83-3.15 278.83-7.15L278.83-7.15 278.83-28.25Q278.83-34.25 284.53-34.25L284.53-34.25 300.73-34.25Q303.63-34.25 305.06-33.35 306.48-32.45 306.48-30.1L306.48-30.1Q306.48-27.9 305.26-27.03 304.03-26.15 301.23-26.15L301.23-26.15 290.33-26.15 290.33-20.3ZM323.93-20.3L332.53-20.3Q335.18-20.3 336.25-19.45 337.33-18.6 337.33-16.55L337.33-16.55Q337.33-14.85 336.05-14.13 334.78-13.4 332.08-13.4L332.08-13.4 323.98-13.4 323.98-8.1 334.83-8.05Q337.63-8.05 338.85-7.23 340.08-6.4 340.08-4.3L340.08-4.3Q340.08-1.9 338.65-0.95 337.23 0 334.33 0L334.33 0 318.13 0Q315.18 0 313.8-1.58 312.43-3.15 312.43-7.15L312.43-7.15 312.43-28.25Q312.43-34.25 318.13-34.25L318.13-34.25 334.33-34.25Q337.23-34.25 338.65-33.35 340.08-32.45 340.08-30.1L340.08-30.1Q340.08-27.9 338.85-27.03 337.63-26.15 334.83-26.15L334.83-26.15 323.93-26.15 323.93-20.3ZM367.18-25.6L367.18-7.5Q367.18-4.65 366.48-2.98 365.78-1.3 364.55-0.65 363.33 0 361.33 0L361.33 0Q358.38 0 357.05-1.58 355.73-3.15 355.68-7.15L355.68-7.15 355.58-25.6 351.33-25.6Q348.18-25.6 346.6-26.6 345.03-27.6 345.03-30.15L345.03-30.15Q345.03-31.7 345.65-32.6 346.28-33.5 347.53-33.88 348.78-34.25 350.88-34.25L350.88-34.25 372.28-34.25Q375.08-34.25 376.33-33.25 377.58-32.25 377.58-29.8L377.58-29.8Q377.58-28.15 376.85-27.23 376.13-26.3 374.93-25.95 373.73-25.6 371.83-25.6L371.83-25.6 367.18-25.6Z" opacity="1" transform="matrix(1,0,0,1,0,0)" fill="#ffa458" class="wordmark-text-0" data-fill-palette-color="primary" id="text-0"></path></svg></g></svg></g><g transform="matrix(1,0,0,1,0,45.54658841589765)"><svg viewBox="0 0 232.20979200000005 13.18307998020335" height="13.18307998020335" width="232.20979200000005"><g transform="matrix(1,0,0,1,0,0)"><svg width="232.20979200000005" viewBox="3.03515625 -39.05 897.364435543755 50.949999999999996" height="13.18307998020335" data-palette-color="#ba3b0a"><path d="M14.05 0.25L14.05 0.25Q11.1 0.25 8.2-0.75 5.3-1.75 3.5-3.75L3.5-3.75Q2.95-4.35 3.05-5.1 3.15-5.85 3.8-6.4L3.8-6.4Q4.5-6.9 5.25-6.8 6-6.7 6.5-6.15L6.5-6.15Q7.7-4.75 9.68-4 11.65-3.25 14.05-3.25L14.05-3.25Q17.75-3.25 19.4-4.53 21.05-5.8 21.1-7.6L21.1-7.6Q21.1-9.4 19.4-10.58 17.7-11.75 13.8-12.4L13.8-12.4Q8.75-13.2 6.4-15.2 4.05-17.2 4.05-19.95L4.05-19.95Q4.05-22.5 5.4-24.2 6.75-25.9 9-26.75 11.25-27.6 13.95-27.6L13.95-27.6Q17.3-27.6 19.73-26.45 22.15-25.3 23.65-23.35L23.65-23.35Q24.15-22.7 24.05-22 23.95-21.3 23.25-20.85L23.25-20.85Q22.65-20.5 21.88-20.63 21.1-20.75 20.55-21.35L20.55-21.35Q19.3-22.8 17.65-23.48 16-24.15 13.85-24.15L13.85-24.15Q11.1-24.15 9.45-23.03 7.8-21.9 7.8-20.2L7.8-20.2Q7.8-19.05 8.43-18.2 9.05-17.35 10.58-16.7 12.1-16.05 14.85-15.6L14.85-15.6Q18.6-15 20.78-13.83 22.95-12.65 23.88-11.08 24.8-9.5 24.8-7.65L24.8-7.65Q24.8-5.3 23.43-3.53 22.05-1.75 19.63-0.75 17.2 0.25 14.05 0.25ZM43.35 0.3L43.35 0.3Q39.8 0.3 37-1.18 34.2-2.65 32.57-5.5 30.95-8.35 30.95-12.45L30.95-12.45 30.95-25.45Q30.95-26.25 31.5-26.8 32.05-27.35 32.85-27.35L32.85-27.35Q33.7-27.35 34.25-26.8 34.8-26.25 34.8-25.45L34.8-25.45 34.8-12.45Q34.8-9.35 35.97-7.35 37.15-5.35 39.17-4.35 41.2-3.35 43.75-3.35L43.75-3.35Q46.2-3.35 48.17-4.3 50.15-5.25 51.3-6.9 52.45-8.55 52.45-10.65L52.45-10.65 55.2-10.65Q55.05-7.5 53.47-5.03 51.9-2.55 49.25-1.13 46.6 0.3 43.35 0.3ZM54.35 0L54.35 0Q53.5 0 52.97-0.53 52.45-1.05 52.45-1.95L52.45-1.95 52.45-25.45Q52.45-26.3 52.97-26.83 53.5-27.35 54.35-27.35L54.35-27.35Q55.2-27.35 55.75-26.83 56.3-26.3 56.3-25.45L56.3-25.45 56.3-1.95Q56.3-1.05 55.75-0.53 55.2 0 54.35 0ZM69.09-16.85L66.89-16.85Q67.05-19.95 68.52-22.4 70-24.85 72.37-26.25 74.75-27.65 77.65-27.65L77.65-27.65Q79.95-27.65 81.2-27 82.45-26.35 82.15-25.1L82.15-25.1Q81.95-24.35 81.47-24.1 81-23.85 80.32-23.9 79.65-23.95 78.8-24L78.8-24Q76-24.25 73.82-23.43 71.65-22.6 70.37-20.9 69.09-19.2 69.09-16.85L69.09-16.85ZM67.2 0L67.2 0Q66.3 0 65.8-0.5 65.3-1 65.3-1.9L65.3-1.9 65.3-25.45Q65.3-26.35 65.8-26.85 66.3-27.35 67.2-27.35L67.2-27.35Q68.09-27.35 68.59-26.85 69.09-26.35 69.09-25.45L69.09-25.45 69.09-1.9Q69.09-1 68.59-0.5 68.09 0 67.2 0ZM98.24 0.25L98.24 0.25Q94.39 0.25 91.34-1.58 88.29-3.4 86.52-6.55 84.74-9.7 84.74-13.65L84.74-13.65Q84.74-17.65 86.57-20.8 88.39-23.95 91.54-25.78 94.69-27.6 98.64-27.6L98.64-27.6Q102.59-27.6 105.72-25.78 108.84-23.95 110.67-20.8 112.49-17.65 112.54-13.65L112.54-13.65 110.99-12.45Q110.99-8.85 109.32-5.98 107.64-3.1 104.77-1.43 101.89 0.25 98.24 0.25ZM98.64-3.25L98.64-3.25Q101.54-3.25 103.82-4.6 106.09-5.95 107.42-8.33 108.74-10.7 108.74-13.65L108.74-13.65Q108.74-16.65 107.42-19 106.09-21.35 103.82-22.73 101.54-24.1 98.64-24.1L98.64-24.1Q95.79-24.1 93.49-22.73 91.19-21.35 89.84-19 88.49-16.65 88.49-13.65L88.49-13.65Q88.49-10.7 89.84-8.33 91.19-5.95 93.49-4.6 95.79-3.25 98.64-3.25ZM110.59 0L110.59 0Q109.74 0 109.19-0.53 108.64-1.05 108.64-1.9L108.64-1.9 108.64-10.45 109.59-14.4 112.54-13.65 112.54-1.9Q112.54-1.05 111.99-0.53 111.44 0 110.59 0ZM143.49 0L143.49 0Q142.64 0 142.09-0.55 141.54-1.1 141.54-1.9L141.54-1.9 141.54-14.9Q141.54-18 140.37-20 139.19-22 137.17-23 135.14-24 132.59-24L132.59-24Q130.14-24 128.17-23.05 126.19-22.1 125.04-20.45 123.89-18.8 123.89-16.7L123.89-16.7 121.14-16.7Q121.24-19.85 122.84-22.33 124.44-24.8 127.09-26.23 129.74-27.65 132.99-27.65L132.99-27.65Q136.54-27.65 139.34-26.18 142.14-24.7 143.77-21.85 145.39-19 145.39-14.9L145.39-14.9 145.39-1.9Q145.39-1.1 144.84-0.55 144.29 0 143.49 0ZM121.99 0L121.99 0Q121.09 0 120.57-0.53 120.04-1.05 120.04-1.9L120.04-1.9 120.04-25.4Q120.04-26.3 120.57-26.83 121.09-27.35 121.99-27.35L121.99-27.35Q122.84-27.35 123.37-26.83 123.89-26.3 123.89-25.4L123.89-25.4 123.89-1.9Q123.89-1.05 123.37-0.53 122.84 0 121.99 0ZM165.94 0.25L165.94 0.25Q162.09 0.25 159.04-1.58 155.99-3.4 154.21-6.55 152.44-9.7 152.44-13.65L152.44-13.65Q152.44-17.65 154.26-20.8 156.09-23.95 159.24-25.78 162.39-27.6 166.34-27.6L166.34-27.6Q170.29-27.6 173.41-25.78 176.54-23.95 178.36-20.8 180.19-17.65 180.24-13.65L180.24-13.65 178.69-12.45Q178.69-8.85 177.01-5.98 175.34-3.1 172.46-1.43 169.59 0.25 165.94 0.25ZM166.34-3.25L166.34-3.25Q169.24-3.25 171.51-4.6 173.79-5.95 175.11-8.33 176.44-10.7 176.44-13.65L176.44-13.65Q176.44-16.65 175.11-19 173.79-21.35 171.51-22.73 169.24-24.1 166.34-24.1L166.34-24.1Q163.49-24.1 161.19-22.73 158.89-21.35 157.54-19 156.19-16.65 156.19-13.65L156.19-13.65Q156.19-10.7 157.54-8.33 158.89-5.95 161.19-4.6 163.49-3.25 166.34-3.25ZM178.29 0L178.29 0Q177.44 0 176.89-0.53 176.34-1.05 176.34-1.9L176.34-1.9 176.34-10.45 177.29-14.4 180.24-13.65 180.24-1.9Q180.24-1.05 179.69-0.53 179.14 0 178.29 0ZM191.54-16.85L189.34-16.85Q189.49-19.95 190.96-22.4 192.44-24.85 194.81-26.25 197.19-27.65 200.09-27.65L200.09-27.65Q202.39-27.65 203.64-27 204.89-26.35 204.59-25.1L204.59-25.1Q204.39-24.35 203.91-24.1 203.44-23.85 202.76-23.9 202.09-23.95 201.24-24L201.24-24Q198.44-24.25 196.26-23.43 194.09-22.6 192.81-20.9 191.54-19.2 191.54-16.85L191.54-16.85ZM189.64 0L189.64 0Q188.74 0 188.24-0.5 187.74-1 187.74-1.9L187.74-1.9 187.74-25.45Q187.74-26.35 188.24-26.85 188.74-27.35 189.64-27.35L189.64-27.35Q190.54-27.35 191.04-26.85 191.54-26.35 191.54-25.45L191.54-25.45 191.54-1.9Q191.54-1 191.04-0.5 190.54 0 189.64 0ZM221.03 0.25L221.03 0.25Q216.98 0.25 213.86-1.53 210.73-3.3 208.96-6.45 207.18-9.6 207.18-13.65L207.18-13.65Q207.18-17.75 208.86-20.88 210.53-24 213.48-25.8 216.43-27.6 220.28-27.6L220.28-27.6Q224.08-27.6 226.91-25.88 229.73-24.15 231.28-21.1 232.83-18.05 232.83-14.15L232.83-14.15Q232.83-13.35 232.33-12.88 231.83-12.4 231.03-12.4L231.03-12.4 209.78-12.4 209.78-15.6 231.43-15.6 229.28-14.05Q229.33-16.95 228.23-19.25 227.13-21.55 225.11-22.85 223.08-24.15 220.28-24.15L220.28-24.15Q217.43-24.15 215.28-22.8 213.13-21.45 211.96-19.07 210.78-16.7 210.78-13.65L210.78-13.65Q210.78-10.6 212.11-8.25 213.43-5.9 215.73-4.55 218.03-3.2 221.03-3.2L221.03-3.2Q222.83-3.2 224.66-3.83 226.48-4.45 227.58-5.4L227.58-5.4Q228.13-5.85 228.83-5.88 229.53-5.9 230.03-5.5L230.03-5.5Q230.68-4.9 230.71-4.2 230.73-3.5 230.13-3L230.13-3Q228.48-1.6 225.93-0.68 223.38 0.25 221.03 0.25ZM250.73 0.25L250.73 0.25Q246.68 0.25 243.56-1.53 240.43-3.3 238.66-6.45 236.88-9.6 236.88-13.65L236.88-13.65Q236.88-17.75 238.56-20.88 240.23-24 243.18-25.8 246.13-27.6 249.98-27.6L249.98-27.6Q253.78-27.6 256.61-25.88 259.43-24.15 260.98-21.1 262.53-18.05 262.53-14.15L262.53-14.15Q262.53-13.35 262.03-12.88 261.53-12.4 260.73-12.4L260.73-12.4 239.48-12.4 239.48-15.6 261.13-15.6 258.98-14.05Q259.03-16.95 257.93-19.25 256.83-21.55 254.81-22.85 252.78-24.15 249.98-24.15L249.98-24.15Q247.13-24.15 244.98-22.8 242.83-21.45 241.66-19.07 240.48-16.7 240.48-13.65L240.48-13.65Q240.48-10.6 241.81-8.25 243.13-5.9 245.43-4.55 247.73-3.2 250.73-3.2L250.73-3.2Q252.53-3.2 254.36-3.83 256.18-4.45 257.28-5.4L257.28-5.4Q257.83-5.85 258.53-5.88 259.23-5.9 259.73-5.5L259.73-5.5Q260.38-4.9 260.41-4.2 260.43-3.5 259.83-3L259.83-3Q258.18-1.6 255.63-0.68 253.08 0.25 250.73 0.25ZM295.57 0.3L295.57 0.3Q292.03 0.3 289.23-1.18 286.43-2.65 284.8-5.5 283.18-8.35 283.18-12.45L283.18-12.45 283.18-25.45Q283.18-26.25 283.73-26.8 284.28-27.35 285.07-27.35L285.07-27.35Q285.93-27.35 286.48-26.8 287.03-26.25 287.03-25.45L287.03-25.45 287.03-12.45Q287.03-9.35 288.2-7.35 289.38-5.35 291.4-4.35 293.43-3.35 295.98-3.35L295.98-3.35Q298.43-3.35 300.4-4.3 302.38-5.25 303.53-6.9 304.68-8.55 304.68-10.65L304.68-10.65 307.43-10.65Q307.28-7.5 305.7-5.03 304.13-2.55 301.48-1.13 298.82 0.3 295.57 0.3ZM306.57 0L306.57 0Q305.73 0 305.2-0.53 304.68-1.05 304.68-1.95L304.68-1.95 304.68-25.45Q304.68-26.3 305.2-26.83 305.73-27.35 306.57-27.35L306.57-27.35Q307.43-27.35 307.98-26.83 308.53-26.3 308.53-25.45L308.53-25.45 308.53-1.95Q308.53-1.05 307.98-0.53 307.43 0 306.57 0ZM340.97 0L340.97 0Q340.12 0 339.57-0.55 339.02-1.1 339.02-1.9L339.02-1.9 339.02-14.9Q339.02-18 337.85-20 336.67-22 334.65-23 332.62-24 330.07-24L330.07-24Q327.62-24 325.65-23.05 323.67-22.1 322.52-20.45 321.37-18.8 321.37-16.7L321.37-16.7 318.62-16.7Q318.72-19.85 320.32-22.33 321.92-24.8 324.57-26.23 327.22-27.65 330.47-27.65L330.47-27.65Q334.02-27.65 336.82-26.18 339.62-24.7 341.25-21.85 342.87-19 342.87-14.9L342.87-14.9 342.87-1.9Q342.87-1.1 342.32-0.55 341.77 0 340.97 0ZM319.47 0L319.47 0Q318.57 0 318.05-0.53 317.52-1.05 317.52-1.9L317.52-1.9 317.52-25.4Q317.52-26.3 318.05-26.83 318.57-27.35 319.47-27.35L319.47-27.35Q320.32-27.35 320.85-26.83 321.37-26.3 321.37-25.4L321.37-25.4 321.37-1.9Q321.37-1.05 320.85-0.53 320.32 0 319.47 0ZM354.12 0L354.12 0Q353.22 0 352.7-0.53 352.17-1.05 352.17-1.95L352.17-1.95 352.17-25.4Q352.17-26.3 352.7-26.83 353.22-27.35 354.12-27.35L354.12-27.35Q354.97-27.35 355.5-26.83 356.02-26.3 356.02-25.4L356.02-25.4 356.02-1.95Q356.02-1.05 355.5-0.53 354.97 0 354.12 0ZM354.07-32.55L354.07-32.55Q352.97-32.55 352.17-33.35 351.37-34.15 351.37-35.3L351.37-35.3Q351.37-36.55 352.2-37.27 353.02-38 354.12-38L354.12-38Q355.17-38 356-37.27 356.82-36.55 356.82-35.3L356.82-35.3Q356.82-34.15 356.02-33.35 355.22-32.55 354.07-32.55ZM375.17 0L375.17 0Q373.97 0 373.37-1.3L373.37-1.3 362.27-24.85Q361.97-25.5 362.22-26.15 362.47-26.8 363.22-27.15L363.22-27.15Q363.92-27.5 364.57-27.25 365.22-27 365.57-26.35L365.57-26.35 376.22-3.3 374.17-3.3 384.67-26.35Q384.97-27.05 385.69-27.28 386.42-27.5 387.12-27.2L387.12-27.2Q387.82-26.85 388.07-26.18 388.32-25.5 388.02-24.9L388.02-24.9 377.07-1.3Q376.47 0 375.17 0ZM404.87 0.25L404.87 0.25Q400.82 0.25 397.69-1.53 394.57-3.3 392.79-6.45 391.02-9.6 391.02-13.65L391.02-13.65Q391.02-17.75 392.69-20.88 394.37-24 397.32-25.8 400.27-27.6 404.12-27.6L404.12-27.6Q407.92-27.6 410.74-25.88 413.57-24.15 415.12-21.1 416.67-18.05 416.67-14.15L416.67-14.15Q416.67-13.35 416.17-12.88 415.67-12.4 414.87-12.4L414.87-12.4 393.62-12.4 393.62-15.6 415.27-15.6 413.12-14.05Q413.17-16.95 412.07-19.25 410.97-21.55 408.94-22.85 406.92-24.15 404.12-24.15L404.12-24.15Q401.27-24.15 399.12-22.8 396.97-21.45 395.79-19.07 394.62-16.7 394.62-13.65L394.62-13.65Q394.62-10.6 395.94-8.25 397.27-5.9 399.57-4.55 401.87-3.2 404.87-3.2L404.87-3.2Q406.67-3.2 408.49-3.83 410.32-4.45 411.42-5.4L411.42-5.4Q411.97-5.85 412.67-5.88 413.37-5.9 413.87-5.5L413.87-5.5Q414.52-4.9 414.54-4.2 414.57-3.5 413.97-3L413.97-3Q412.32-1.6 409.77-0.68 407.22 0.25 404.87 0.25ZM426.96-16.85L424.76-16.85Q424.91-19.95 426.39-22.4 427.86-24.85 430.24-26.25 432.61-27.65 435.51-27.65L435.51-27.65Q437.81-27.65 439.06-27 440.31-26.35 440.01-25.1L440.01-25.1Q439.81-24.35 439.34-24.1 438.86-23.85 438.19-23.9 437.51-23.95 436.66-24L436.66-24Q433.86-24.25 431.69-23.43 429.51-22.6 428.24-20.9 426.96-19.2 426.96-16.85L426.96-16.85ZM425.06 0L425.06 0Q424.16 0 423.66-0.5 423.16-1 423.16-1.9L423.16-1.9 423.16-25.45Q423.16-26.35 423.66-26.85 424.16-27.35 425.06-27.35L425.06-27.35Q425.96-27.35 426.46-26.85 426.96-26.35 426.96-25.45L426.96-25.45 426.96-1.9Q426.96-1 426.46-0.5 425.96 0 425.06 0ZM455.61 0.25L455.61 0.25Q452.66 0.25 449.76-0.75 446.86-1.75 445.06-3.75L445.06-3.75Q444.51-4.35 444.61-5.1 444.71-5.85 445.36-6.4L445.36-6.4Q446.06-6.9 446.81-6.8 447.56-6.7 448.06-6.15L448.06-6.15Q449.26-4.75 451.24-4 453.21-3.25 455.61-3.25L455.61-3.25Q459.31-3.25 460.96-4.53 462.61-5.8 462.66-7.6L462.66-7.6Q462.66-9.4 460.96-10.58 459.26-11.75 455.36-12.4L455.36-12.4Q450.31-13.2 447.96-15.2 445.61-17.2 445.61-19.95L445.61-19.95Q445.61-22.5 446.96-24.2 448.31-25.9 450.56-26.75 452.81-27.6 455.51-27.6L455.51-27.6Q458.86-27.6 461.29-26.45 463.71-25.3 465.21-23.35L465.21-23.35Q465.71-22.7 465.61-22 465.51-21.3 464.81-20.85L464.81-20.85Q464.21-20.5 463.44-20.63 462.66-20.75 462.11-21.35L462.11-21.35Q460.86-22.8 459.21-23.48 457.56-24.15 455.41-24.15L455.41-24.15Q452.66-24.15 451.01-23.03 449.36-21.9 449.36-20.2L449.36-20.2Q449.36-19.05 449.99-18.2 450.61-17.35 452.13-16.7 453.66-16.05 456.41-15.6L456.41-15.6Q460.16-15 462.33-13.83 464.51-12.65 465.44-11.08 466.36-9.5 466.36-7.65L466.36-7.65Q466.36-5.3 464.99-3.53 463.61-1.75 461.19-0.75 458.76 0.25 455.61 0.25ZM475.76 0L475.76 0Q474.86 0 474.33-0.53 473.81-1.05 473.81-1.95L473.81-1.95 473.81-25.4Q473.81-26.3 474.33-26.83 474.86-27.35 475.76-27.35L475.76-27.35Q476.61-27.35 477.13-26.83 477.66-26.3 477.66-25.4L477.66-25.4 477.66-1.95Q477.66-1.05 477.13-0.53 476.61 0 475.76 0ZM475.71-32.55L475.71-32.55Q474.61-32.55 473.81-33.35 473.01-34.15 473.01-35.3L473.01-35.3Q473.01-36.55 473.83-37.27 474.66-38 475.76-38L475.76-38Q476.81-38 477.63-37.27 478.46-36.55 478.46-35.3L478.46-35.3Q478.46-34.15 477.66-33.35 476.86-32.55 475.71-32.55ZM499.2 0L498.15 0Q495.5 0 493.43-1.25 491.35-2.5 490.15-4.67 488.95-6.85 488.95-9.65L488.95-9.65 488.95-34.1Q488.95-34.95 489.48-35.5 490-36.05 490.85-36.05L490.85-36.05Q491.7-36.05 492.25-35.5 492.81-34.95 492.81-34.1L492.81-34.1 492.81-9.65Q492.81-7.1 494.31-5.48 495.81-3.85 498.15-3.85L498.15-3.85 499.5-3.85Q500.31-3.85 500.81-3.3 501.31-2.75 501.31-1.9L501.31-1.9Q501.31-1.05 500.7-0.53 500.1 0 499.2 0L499.2 0ZM498.45-23L485.7-23Q484.95-23 484.45-23.48 483.95-23.95 483.95-24.65L483.95-24.65Q483.95-25.4 484.45-25.88 484.95-26.35 485.7-26.35L485.7-26.35 498.45-26.35Q499.2-26.35 499.7-25.88 500.2-25.4 500.2-24.65L500.2-24.65Q500.2-23.95 499.7-23.48 499.2-23 498.45-23L498.45-23ZM512.25 11.9L512.25 11.9Q511.85 11.9 511.35 11.7L511.35 11.7Q509.65 10.95 510.4 9.3L510.4 9.3 526.55-26.3Q527.3-27.9 528.95-27.2L528.95-27.2Q530.65-26.5 529.9-24.85L529.9-24.85 513.7 10.75Q513.2 11.9 512.25 11.9ZM517.8-0.85L517.8-0.85Q517.05-0.5 516.4-0.73 515.75-0.95 515.35-1.7L515.35-1.7 504.2-24.8Q503.85-25.55 504.1-26.2 504.35-26.85 505.1-27.2L505.1-27.2Q505.85-27.55 506.5-27.33 507.15-27.1 507.5-26.35L507.5-26.35 518.45-3.25Q518.85-2.5 518.7-1.85 518.55-1.2 517.8-0.85ZM562.05 0.25L562.05 0.25Q558.05 0.25 554.9-1.55 551.75-3.35 549.95-6.5 548.15-9.65 548.15-13.65L548.15-13.65Q548.15-17.7 549.95-20.85 551.75-24 554.9-25.8 558.05-27.6 562.05-27.6L562.05-27.6Q566.05-27.6 569.17-25.8 572.3-24 574.1-20.85 575.9-17.7 575.95-13.65L575.95-13.65Q575.95-9.65 574.12-6.5 572.3-3.35 569.17-1.55 566.05 0.25 562.05 0.25ZM562.05-3.25L562.05-3.25Q564.95-3.25 567.25-4.6 569.55-5.95 570.85-8.3 572.15-10.65 572.15-13.65L572.15-13.65Q572.15-16.65 570.85-19.03 569.55-21.4 567.25-22.75 564.95-24.1 562.05-24.1L562.05-24.1Q559.15-24.1 556.85-22.75 554.55-21.4 553.22-19.03 551.9-16.65 551.9-13.65L551.9-13.65Q551.9-10.65 553.22-8.3 554.55-5.95 556.85-4.6 559.15-3.25 562.05-3.25ZM586.84 0L586.84 0Q586.09 0 585.54-0.53 584.99-1.05 584.99-1.95L584.99-1.95 584.99-27.3Q584.99-30.8 586.19-33.45 587.39-36.1 589.74-37.58 592.09-39.05 595.49-39.05L595.49-39.05Q596.34-39.05 596.89-38.55 597.44-38.05 597.44-37.3L597.44-37.3Q597.44-36.55 596.89-36.05 596.34-35.55 595.49-35.55L595.49-35.55Q593.24-35.55 591.77-34.52 590.29-33.5 589.57-31.68 588.84-29.85 588.84-27.5L588.84-27.5 588.84-1.95Q588.84-1.05 588.32-0.53 587.79 0 586.84 0ZM594.84-23L581.79-23Q580.99-23 580.52-23.48 580.04-23.95 580.04-24.65L580.04-24.65Q580.04-25.4 580.52-25.88 580.99-26.35 581.79-26.35L581.79-26.35 594.84-26.35Q595.64-26.35 596.12-25.88 596.59-25.4 596.59-24.65L596.59-24.65Q596.59-23.95 596.12-23.48 595.64-23 594.84-23L594.84-23ZM628.14 0L627.09 0Q624.44 0 622.36-1.25 620.29-2.5 619.09-4.67 617.89-6.85 617.89-9.65L617.89-9.65 617.89-34.1Q617.89-34.95 618.41-35.5 618.94-36.05 619.79-36.05L619.79-36.05Q620.64-36.05 621.19-35.5 621.74-34.95 621.74-34.1L621.74-34.1 621.74-9.65Q621.74-7.1 623.24-5.48 624.74-3.85 627.09-3.85L627.09-3.85 628.44-3.85Q629.24-3.85 629.74-3.3 630.24-2.75 630.24-1.9L630.24-1.9Q630.24-1.05 629.64-0.53 629.04 0 628.14 0L628.14 0ZM627.39-23L614.64-23Q613.89-23 613.39-23.48 612.89-23.95 612.89-24.65L612.89-24.65Q612.89-25.4 613.39-25.88 613.89-26.35 614.64-26.35L614.64-26.35 627.39-26.35Q628.14-26.35 628.64-25.88 629.14-25.4 629.14-24.65L629.14-24.65Q629.14-23.95 628.64-23.48 628.14-23 627.39-23L627.39-23ZM648.89 0.25L648.89 0.25Q644.84 0.25 641.71-1.53 638.59-3.3 636.81-6.45 635.04-9.6 635.04-13.65L635.04-13.65Q635.04-17.75 636.71-20.88 638.39-24 641.34-25.8 644.29-27.6 648.14-27.6L648.14-27.6Q651.94-27.6 654.76-25.88 657.59-24.15 659.14-21.1 660.69-18.05 660.69-14.15L660.69-14.15Q660.69-13.35 660.19-12.88 659.69-12.4 658.89-12.4L658.89-12.4 637.64-12.4 637.64-15.6 659.29-15.6 657.14-14.05Q657.19-16.95 656.09-19.25 654.99-21.55 652.96-22.85 650.94-24.15 648.14-24.15L648.14-24.15Q645.29-24.15 643.14-22.8 640.99-21.45 639.81-19.07 638.64-16.7 638.64-13.65L638.64-13.65Q638.64-10.6 639.96-8.25 641.29-5.9 643.59-4.55 645.89-3.2 648.89-3.2L648.89-3.2Q650.69-3.2 652.51-3.83 654.34-4.45 655.44-5.4L655.44-5.4Q655.99-5.85 656.69-5.88 657.39-5.9 657.89-5.5L657.89-5.5Q658.54-4.9 658.56-4.2 658.59-3.5 657.99-3L657.99-3Q656.34-1.6 653.79-0.68 651.24 0.25 648.89 0.25ZM678.38 0.25L678.38 0.25Q674.43 0.25 671.36-1.58 668.28-3.4 666.51-6.55 664.73-9.7 664.73-13.65L664.73-13.65Q664.73-17.65 666.43-20.8 668.13-23.95 671.08-25.78 674.03-27.6 677.88-27.6L677.88-27.6Q680.93-27.6 683.51-26.4 686.08-25.2 688.03-22.8L688.03-22.8Q688.58-22.2 688.43-21.53 688.28-20.85 687.58-20.35L687.58-20.35Q687.03-19.95 686.36-20.08 685.68-20.2 685.18-20.8L685.18-20.8Q682.28-24.1 677.88-24.1L677.88-24.1Q675.08-24.1 672.96-22.75 670.83-21.4 669.66-19.05 668.48-16.7 668.48-13.65L668.48-13.65Q668.48-10.65 669.73-8.3 670.98-5.95 673.23-4.6 675.48-3.25 678.38-3.25L678.38-3.25Q680.33-3.25 681.96-3.78 683.58-4.3 684.83-5.4L684.83-5.4Q685.43-5.9 686.08-5.95 686.73-6 687.28-5.55L687.28-5.55Q687.88-5 687.96-4.3 688.03-3.6 687.48-3.1L687.48-3.1Q683.83 0.25 678.38 0.25ZM719.43 0L719.43 0Q718.58 0 718.03-0.55 717.48-1.1 717.48-1.9L717.48-1.9 717.48-14.9Q717.48-18 716.31-20 715.13-22 713.11-23 711.08-24 708.53-24L708.53-24Q706.08-24 704.11-23.05 702.13-22.1 700.98-20.45 699.83-18.8 699.83-16.7L699.83-16.7 697.08-16.7Q697.18-19.85 698.78-22.33 700.38-24.8 703.03-26.23 705.68-27.65 708.93-27.65L708.93-27.65Q712.48-27.65 715.28-26.18 718.08-24.7 719.71-21.85 721.33-19 721.33-14.9L721.33-14.9 721.33-1.9Q721.33-1.1 720.78-0.55 720.23 0 719.43 0ZM697.93 0L697.93 0Q697.03 0 696.51-0.53 695.98-1.05 695.98-1.9L695.98-1.9 695.98-25.4Q695.98-26.3 696.51-26.83 697.03-27.35 697.93-27.35L697.93-27.35Q698.78-27.35 699.31-26.83 699.83-26.3 699.83-25.4L699.83-25.4 699.83-1.9Q699.83-1.05 699.31-0.53 698.78 0 697.93 0ZM697.93-11.15L697.93-11.15Q697.03-11.15 696.51-11.7 695.98-12.25 695.98-13.1L695.98-13.1 695.98-37.1Q695.98-38 696.51-38.53 697.03-39.05 697.93-39.05L697.93-39.05Q698.78-39.05 699.31-38.53 699.83-38 699.83-37.1L699.83-37.1 699.83-13.1Q699.83-12.25 699.31-11.7 698.78-11.15 697.93-11.15ZM753.28 0L753.28 0Q752.43 0 751.88-0.55 751.33-1.1 751.33-1.9L751.33-1.9 751.33-14.9Q751.33-18 750.15-20 748.98-22 746.95-23 744.93-24 742.38-24L742.38-24Q739.93-24 737.95-23.05 735.98-22.1 734.83-20.45 733.68-18.8 733.68-16.7L733.68-16.7 730.93-16.7Q731.03-19.85 732.63-22.33 734.23-24.8 736.88-26.23 739.53-27.65 742.78-27.65L742.78-27.65Q746.33-27.65 749.13-26.18 751.93-24.7 753.55-21.85 755.18-19 755.18-14.9L755.18-14.9 755.18-1.9Q755.18-1.1 754.63-0.55 754.08 0 753.28 0ZM731.78 0L731.78 0Q730.88 0 730.35-0.53 729.83-1.05 729.83-1.9L729.83-1.9 729.83-25.4Q729.83-26.3 730.35-26.83 730.88-27.35 731.78-27.35L731.78-27.35Q732.63-27.35 733.15-26.83 733.68-26.3 733.68-25.4L733.68-25.4 733.68-1.9Q733.68-1.05 733.15-0.53 732.63 0 731.78 0ZM776.13 0.25L776.13 0.25Q772.13 0.25 768.98-1.55 765.83-3.35 764.03-6.5 762.23-9.65 762.23-13.65L762.23-13.65Q762.23-17.7 764.03-20.85 765.83-24 768.98-25.8 772.13-27.6 776.13-27.6L776.13-27.6Q780.13-27.6 783.25-25.8 786.38-24 788.18-20.85 789.98-17.7 790.03-13.65L790.03-13.65Q790.03-9.65 788.2-6.5 786.38-3.35 783.25-1.55 780.13 0.25 776.13 0.25ZM776.13-3.25L776.13-3.25Q779.03-3.25 781.33-4.6 783.63-5.95 784.93-8.3 786.23-10.65 786.23-13.65L786.23-13.65Q786.23-16.65 784.93-19.03 783.63-21.4 781.33-22.75 779.03-24.1 776.13-24.1L776.13-24.1Q773.23-24.1 770.93-22.75 768.63-21.4 767.3-19.03 765.98-16.65 765.98-13.65L765.98-13.65Q765.98-10.65 767.3-8.3 768.63-5.95 770.93-4.6 773.23-3.25 776.13-3.25ZM804.07 0L803.42 0Q801.42 0 799.85-1.1 798.27-2.2 797.4-4.15 796.52-6.1 796.52-8.65L796.52-8.65 796.52-37.15Q796.52-38 797.05-38.53 797.57-39.05 798.42-39.05L798.42-39.05Q799.27-39.05 799.8-38.53 800.32-38 800.32-37.15L800.32-37.15 800.32-8.65Q800.32-6.5 801.2-5.15 802.07-3.8 803.42-3.8L803.42-3.8 804.67-3.8Q805.42-3.8 805.87-3.28 806.32-2.75 806.32-1.9L806.32-1.9Q806.32-1.05 805.7-0.53 805.07 0 804.07 0L804.07 0ZM822.57 0.25L822.57 0.25Q818.57 0.25 815.42-1.55 812.27-3.35 810.47-6.5 808.67-9.65 808.67-13.65L808.67-13.65Q808.67-17.7 810.47-20.85 812.27-24 815.42-25.8 818.57-27.6 822.57-27.6L822.57-27.6Q826.57-27.6 829.7-25.8 832.82-24 834.62-20.85 836.42-17.7 836.47-13.65L836.47-13.65Q836.47-9.65 834.65-6.5 832.82-3.35 829.7-1.55 826.57 0.25 822.57 0.25ZM822.57-3.25L822.57-3.25Q825.47-3.25 827.77-4.6 830.07-5.95 831.37-8.3 832.67-10.65 832.67-13.65L832.67-13.65Q832.67-16.65 831.37-19.03 830.07-21.4 827.77-22.75 825.47-24.1 822.57-24.1L822.57-24.1Q819.67-24.1 817.37-22.75 815.07-21.4 813.75-19.03 812.42-16.65 812.42-13.65L812.42-13.65Q812.42-10.65 813.75-8.3 815.07-5.95 817.37-4.6 819.67-3.25 822.57-3.25ZM856.02 0.25L856.02 0.25Q852.07 0.25 849.02-1.53 845.97-3.3 844.24-6.45 842.52-9.6 842.52-13.65L842.52-13.65Q842.52-17.75 844.32-20.9 846.12-24.05 849.27-25.83 852.42-27.6 856.42-27.6L856.42-27.6Q860.47-27.6 863.59-25.83 866.72-24.05 868.49-20.9 870.27-17.75 870.32-13.65L870.32-13.65 868.07-12.45Q868.07-8.75 866.52-5.88 864.97-3 862.24-1.38 859.52 0.25 856.02 0.25ZM856.52 10.8L856.52 10.8Q852.57 10.8 849.57 9.33 846.57 7.85 844.62 5.3L844.62 5.3Q844.07 4.7 844.14 4 844.22 3.3 844.87 2.85L844.87 2.85Q845.52 2.4 846.32 2.55 847.12 2.7 847.57 3.3L847.57 3.3Q849.02 5.1 851.29 6.2 853.57 7.3 856.57 7.3L856.57 7.3Q859.37 7.3 861.62 5.95 863.87 4.6 865.19 2.15 866.52-0.3 866.52-3.6L866.52-3.6 866.52-11.2 867.97-14.1 870.32-13.65 870.32-3.45Q870.32 0.6 868.52 3.83 866.72 7.05 863.62 8.93 860.52 10.8 856.52 10.8ZM856.42-3.25L856.42-3.25Q859.37-3.25 861.64-4.58 863.92-5.9 865.22-8.25 866.52-10.6 866.52-13.65L866.52-13.65Q866.52-16.7 865.22-19.07 863.92-21.45 861.64-22.78 859.37-24.1 856.42-24.1L856.42-24.1Q853.47-24.1 851.17-22.78 848.87-21.45 847.57-19.07 846.27-16.7 846.27-13.65L846.27-13.65Q846.27-10.6 847.57-8.25 848.87-5.9 851.17-4.58 853.47-3.25 856.42-3.25ZM882.52 11.9L882.52 11.9Q882.12 11.9 881.62 11.7L881.62 11.7Q879.92 10.95 880.67 9.3L880.67 9.3 896.82-26.3Q897.57-27.9 899.22-27.2L899.22-27.2Q900.92-26.5 900.17-24.85L900.17-24.85 883.97 10.75Q883.47 11.9 882.52 11.9ZM888.07-0.85L888.07-0.85Q887.32-0.5 886.67-0.73 886.02-0.95 885.62-1.7L885.62-1.7 874.47-24.8Q874.12-25.55 874.37-26.2 874.62-26.85 875.37-27.2L875.37-27.2Q876.12-27.55 876.77-27.33 877.42-27.1 877.77-26.35L877.77-26.35 888.72-3.25Q889.12-2.5 888.97-1.85 888.82-1.2 888.07-0.85Z" opacity="1" transform="matrix(1,0,0,1,0,0)" fill="#ba3b0a" class="slogan-text-1" data-fill-palette-color="secondary" id="text-1"></path></svg></g></svg></g></svg></g></svg></g></svg></g><defs></defs></svg><rect width="395.52" height="58.729668396101" fill="none" stroke="none" visibility="hidden"></rect></g></svg></g></svg>